<?xml version="1.0" standalone="no"?>
<!DOCTYPE svg PUBLIC "-//W3C//DTD SVG 20010904//EN"
 "http://www.w3.org/TR/2001/REC-SVG-20010904/DTD/svg10.dtd">
<svg version="1.0" xmlns="http://www.w3.org/2000/svg"
 width="910.000000pt" height="1280.000000pt" viewBox="0 0 910.000000 1280.000000"
 preserveAspectRatio="xMidYMid meet">
<metadata>
Created by potrace 1.15, written by Peter Selinger 2001-2017
</metadata>
<g transform="translate(0.000000,1280.000000) scale(0.100000,-0.100000)"
fill="#000000" stroke="none">
<path d="M8334 12790 c-74 -10 -210 -42 -284 -68 l-55 -19 -5 -169 c-5 -164
-6 -171 -36 -234 -17 -36 -50 -83 -72 -105 l-40 -40 32 -380 c18 -214 36 -380
42 -379 5 1 74 23 154 49 171 55 378 152 499 232 228 152 399 384 474 643 31
107 61 280 50 291 -18 17 -222 113 -288 136 -141 48 -311 63 -471 43z"/>
<path d="M7433 12366 c-59 -19 -111 -64 -178 -151 l-58 -75 43 -93 c167 -362
223 -505 254 -657 18 -84 22 -137 141 -1895 47 -693 96 -1422 110 -1620 13
-198 61 -895 105 -1550 44 -654 81 -1199 83 -1210 2 -17 8 -19 37 -16 96 9
171 101 210 257 14 56 22 -64 -140 2269 -33 473 -87 1252 -120 1730 -33 479
-78 1127 -100 1440 -32 470 -60 1092 -60 1353 0 50 -2 54 -62 115 -98 99 -179
131 -265 103z"/>
<path d="M7095 11834 c-119 -22 -343 -53 -505 -68 -320 -32 -530 -37 -1380
-35 -961 2 -871 8 -1110 -78 -442 -160 -862 -416 -1141 -696 -508 -510 -600
-1106 -272 -1761 30 -60 77 -145 104 -189 l50 -80 -176 -269 c-96 -148 -176
-274 -178 -279 -3 -13 765 -372 774 -362 17 19 590 834 595 847 3 7 -18 65
-46 127 -180 398 -229 750 -143 1022 48 153 115 260 238 382 306 303 853 493
1755 609 182 23 296 35 975 101 316 31 533 58 683 87 l112 21 0 38 c0 87 -23
247 -45 318 -27 85 -80 174 -142 239 -43 46 -45 46 -148 26z"/>
<path d="M38 9193 c-21 -2 -38 -6 -38 -9 0 -6 96 -145 184 -264 374 -510 867
-1010 1429 -1449 65 -51 120 -91 122 -89 2 2 -47 186 -109 408 -63 223 -112
407 -111 408 2 2 970 -447 2152 -998 1181 -551 2236 -1043 2343 -1093 107 -49
198 -93 202 -96 4 -4 49 -162 99 -351 50 -190 94 -348 98 -353 10 -10 1784
-838 1788 -834 2 2 -68 154 -154 338 l-157 334 -37 583 c-20 321 -38 585 -41
587 -5 5 -683 322 -731 342 l-38 15 -307 -111 -308 -112 -2353 1097 c-2318
1082 -2352 1098 -2324 1112 26 14 680 312 733 334 22 10 5 15 -120 40 -199 39
-480 83 -695 107 -398 46 -533 53 -1070 56 -286 1 -537 1 -557 -2z"/>
<path d="M2205 7778 c-6 -17 -185 -610 -185 -613 0 -2 -37 -8 -82 -14 -315
-45 -596 -147 -813 -295 -163 -111 -333 -303 -420 -475 -242 -481 -231 -1169
30 -1921 86 -247 86 -247 619 -870 367 -429 406 -475 528 -626 262 -327 477
-637 656 -950 l41 -71 62 -6 c117 -10 255 24 373 93 63 37 196 136 196 146 0
3 -14 33 -31 67 -64 126 -250 412 -525 809 -574 825 -839 1292 -984 1728 -173
525 -115 920 179 1210 169 167 412 294 736 386 72 20 131 38 133 39 2 2 63
231 136 510 l133 506 -31 16 c-67 35 -731 343 -738 343 -5 0 -11 -6 -13 -12z"/>
<path d="M8220 5984 c0 -77 3 -175 6 -220 l7 -80 292 71 c160 40 297 74 304
76 9 3 -513 254 -593 285 -14 5 -16 -11 -16 -132z"/>
<path d="M5280 3489 c-1059 -742 -1969 -1379 -2023 -1415 -177 -119 -336 -182
-684 -275 l-202 -53 -16 -65 c-39 -155 -30 -254 31 -321 44 -49 104 -70 215
-77 l86 -6 329 262 c292 231 562 425 2401 1718 l2072 1458 -131 63 c-72 34
-136 62 -142 61 -6 0 -877 -608 -1936 -1350z"/>
<path d="M3068 1472 l-307 -217 -1 -38 c0 -55 -37 -155 -77 -209 -19 -27 -82
-87 -139 -135 -86 -71 -103 -90 -98 -107 3 -12 30 -72 60 -134 146 -308 327
-478 641 -603 l78 -31 38 44 c236 269 337 515 337 825 0 137 -11 218 -52 378
-40 154 -145 436 -164 442 -5 1 -147 -96 -316 -215z"/>
</g>
</svg>