<?xml version="1.0" standalone="no"?>
<!DOCTYPE svg PUBLIC "-//W3C//DTD SVG 1.1//EN" "http://www.w3.org/Graphics/SVG/1.1/DTD/svg11.dtd" >
<svg>
<metadata>
Created by FontForge 20090622 at Thu Sep 29 04:52:38 2016
 By ffonts
weknow &#194;&#169; (weknow.deviantart.com). 2012. All Rights Reserved
</metadata>
<defs>
<font id="GuitarRumble" horiz-adv-x="1139" >
  <font-face 
    font-family="Guitar Rumble"
    font-weight="400"
    font-stretch="normal"
    units-per-em="2048"
    panose-1="2 0 0 0 0 0 0 0 0 0"
    ascent="1638"
    descent="-410"
    x-height="1048"
    cap-height="1548"
    bbox="30 -148 1422 1792"
    underline-thickness="150"
    underline-position="-142"
    unicode-range="U+0020-U+F005"
  />
<missing-glyph horiz-adv-x="1084" 
d="M30 0v1280h1024v-1280h-1024zM62 32h960v1216h-960v-1216z" />
    <glyph glyph-name=".notdef" horiz-adv-x="1084" 
d="M30 0v1280h1024v-1280h-1024zM62 32h960v1216h-960v-1216z" />
    <glyph glyph-name=".null" horiz-adv-x="0" 
 />
    <glyph glyph-name="nonmarkingreturn" horiz-adv-x="569" 
 />
    <glyph glyph-name="space" unicode=" " horiz-adv-x="569" 
 />
    <glyph glyph-name="space" unicode="&#xa0;" horiz-adv-x="569" 
 />
    <glyph glyph-name="exclam" unicode="!" horiz-adv-x="652" 
d="M410 1548q197 -13 212 -52l-160 -444q-88 -251 -88 -376q-26 -16 -84 -16q-127 0 -164 48v4q212 641 212 824q30 12 72 12zM182 560h16q108 -24 108 -96v-20q0 -71 -108 -112l-44 -8q-124 20 -124 112q29 124 152 124z" />
    <glyph glyph-name="quotedbl" unicode="&#x22;" horiz-adv-x="368" 
d="M106 1548q64 -8 64 -52v-4q0 -105 -80 -124h-20v4q32 32 32 52v4h-8q-64 8 -64 52q0 58 76 68zM282 1548q56 -16 56 -56q-16 -124 -88 -124h-12v4q32 37 32 56h-12q-60 9 -60 48v16q0 47 84 56z" />
    <glyph glyph-name="numbersign" unicode="#" horiz-adv-x="1068" 
d="M446 1548q168 -19 168 -48v-4l-104 -320h200q48 154 84 360l72 12q114 0 172 -48v-4q0 -16 -104 -312h20l20 4l12 -28q0 -40 -48 -84h-12l-28 4l-48 -160h4l16 4h20l12 -12v-16q0 -38 -44 -84l-20 4h-24q-116 -391 -116 -476l-72 -16q-151 11 -172 56v4l144 440h-204
q-116 -377 -116 -480q-28 -14 -76 -20q-119 0 -172 56l144 436h-44l-20 -4l-8 12v28q25 72 44 72h16l48 -4l48 160h-4l-64 -4l-8 12v16q0 37 44 84l28 -4h36q56 198 80 348q25 12 76 16zM478 1084l-52 -168h204l52 168h-204z" />
    <glyph glyph-name="dollar" unicode="$" horiz-adv-x="892" 
d="M678 1688h16l8 -8l-44 -140q112 -20 168 -72q36 -46 36 -92q0 -97 -132 -144l-40 -4h-12q-47 0 -100 24l-48 -180q188 -167 188 -332v-24q0 -242 -268 -364q-75 -24 -116 -24h-4q-23 -132 -36 -132q-43 -12 -84 -12h-12q-8 0 -8 12l40 136q-123 32 -176 112
q-24 38 -24 52q0 11 112 16q104 0 104 -24l8 -72h4l128 476q-216 156 -216 276q0 200 216 328q98 48 168 48q24 132 40 132q24 12 84 12zM410 1264v-24q0 -40 44 -84l80 304h-4q-120 -78 -120 -196zM634 1460l-40 -152h4q60 34 60 84v16q0 34 -24 52zM458 812l-104 -400
q89 85 132 228l8 64q0 48 -32 108h-4z" />
    <glyph glyph-name="percent" unicode="%" horiz-adv-x="948" 
d="M758 1548q160 -15 160 -52q-523 -843 -648 -1148q0 -13 -80 -24q-160 13 -160 64q449 710 632 1104q7 48 48 48zM346 1440h28q77 0 100 -108l4 -28q0 -126 -144 -224q-38 -16 -76 -16h-4q-77 0 -108 80l-8 36v24q0 130 144 220q33 16 64 16zM238 1144q9 -36 20 -36h8
q64 0 108 212v40q0 31 -16 36h-20q-48 -23 -84 -144q-16 -57 -16 -108zM682 808h24q88 0 104 -132v-12q0 -111 -124 -204q-42 -28 -88 -28h-12q-80 0 -112 92l-4 44q0 117 124 212q48 28 88 28zM574 548v-20l-4 -4q8 -48 20 -48h20q27 0 68 100q32 75 32 148q0 27 -20 40h-8
q-66 0 -108 -216z" />
    <glyph glyph-name="ampersand" unicode="&#x26;" horiz-adv-x="940" 
d="M642 1572q143 0 220 -128q24 -45 24 -96v-8q0 -207 -240 -328l-16 -4v-4q76 -91 76 -192l-8 -112h212v-4q-104 -127 -220 -208v-4q12 -88 72 -88h8v-4q-28 -80 -36 -80q-121 0 -200 80q-151 -80 -272 -80q-160 0 -224 184l-8 84v4q0 234 236 420l40 20v4q-76 68 -76 172
q0 218 244 344q88 28 168 28zM434 1180v-4l-4 -4l4 -4v-20q0 -84 76 -84q78 0 156 200q16 66 20 124q0 100 -68 100q-111 0 -180 -256zM230 512v-8l-4 -4q8 -104 52 -104q75 0 212 96q-12 47 -12 120l20 296q0 72 -40 72h-16q-88 0 -184 -292q-28 -94 -28 -176z" />
    <glyph glyph-name="quotesingle" unicode="'" horiz-adv-x="200" 
d="M114 1548q46 0 56 -60q-17 -120 -80 -120h-20v4q32 33 32 56h-12q-60 10 -60 48v12q0 51 84 60z" />
    <glyph glyph-name="parenleft" unicode="(" horiz-adv-x="632" 
d="M582 1688h20v-8q-96 -29 -192 -208q-115 -230 -184 -480q-88 -348 -88 -580q12 -204 64 -204v-4q0 -16 -96 -20q-67 0 -76 216q0 382 212 964q135 312 256 312q0 10 84 12z" />
    <glyph glyph-name="parenright" unicode=")" horiz-adv-x="628" 
d="M518 1688q80 0 80 -224q0 -378 -208 -948q-75 -187 -176 -284q-55 -48 -164 -48h-20v8q97 29 208 244q68 134 144 372q108 379 108 640v24q0 142 -56 192h-8v8q43 16 92 16z" />
    <glyph glyph-name="asterisk" unicode="*" horiz-adv-x="472" 
d="M206 1572q41 0 88 -44l-12 -88h4l100 68h4q17 0 28 -56v-28q0 -35 -44 -48l-40 -16q0 -11 108 -56v-8q0 -44 -84 -72l-120 80l-156 -96h-4q-24 29 -24 72v8q0 43 68 56l20 16l-112 56v4q0 31 68 68h12q10 0 80 -48v32l-8 92z" />
    <glyph glyph-name="plus" unicode="+" horiz-adv-x="488" 
d="M274 1236q148 -11 168 -52l-72 -200h4l76 8l8 -24v-4q0 -38 -44 -84l-72 8v-4q-24 -73 -48 -228q-34 -20 -80 -20q-168 18 -168 60l68 192l-76 -8l-8 24v4q0 49 48 84l64 -4h4q13 0 36 144q8 27 8 84q31 20 84 20z" />
    <glyph glyph-name="comma" unicode="," horiz-adv-x="200" 
d="M102 444h16q52 -14 52 -48v-8q0 -105 -84 -124h-16v4q32 33 32 52v8l-4 -4q-68 10 -68 60q0 46 72 60z" />
    <glyph glyph-name="hyphen" unicode="-" horiz-adv-x="488" 
d="M78 992l152 -8h96l124 8l8 -24v-4q0 -38 -44 -84q-34 8 -160 12l-216 -12l-8 24v4q0 49 48 84z" />
    <glyph glyph-name="hyphen" unicode="&#xad;" horiz-adv-x="488" 
d="M78 992l152 -8h96l124 8l8 -24v-4q0 -38 -44 -84q-34 8 -160 12l-216 -12l-8 24v4q0 49 48 84z" />
    <glyph glyph-name="period" unicode="." horiz-adv-x="200" 
d="M102 444h16q52 -14 52 -48v-4q0 -53 -76 -68q-64 12 -64 60q0 46 72 60z" />
    <glyph glyph-name="slash" unicode="/" horiz-adv-x="944" 
d="M758 1548q137 -11 156 -48v-8q-448 -721 -624 -1088q-17 -72 -60 -72l-40 -8q-134 8 -160 52v12q508 813 644 1140q35 20 84 20z" />
    <glyph glyph-name="zero" unicode="0" horiz-adv-x="804" 
d="M534 1544h16q182 0 220 -308l4 -56v-24q0 -342 -236 -664q-147 -164 -264 -164h-24q-149 0 -208 244q-12 72 -12 136q0 310 196 616q164 220 308 220zM210 512q0 -124 40 -124q100 0 272 536q72 282 72 416v40q0 104 -40 104q-91 0 -256 -484q-88 -317 -88 -488z" />
    <glyph glyph-name="one" unicode="1" horiz-adv-x="644" 
d="M526 1536q88 -7 88 -56v-4q-244 -716 -324 -1044q-8 -96 -28 -96l-60 -12q-161 14 -172 60q312 913 312 1040v20h-8q-23 0 -112 -80h-8q-20 0 -40 80q199 92 352 92z" />
    <glyph glyph-name="two" unicode="2" horiz-adv-x="920" 
d="M550 1544h12q231 0 316 -164q12 -44 12 -76q0 -106 -128 -244q-368 -449 -444 -560l-12 -40q0 -44 64 -56h16q77 0 148 88q46 12 128 12h24q76 0 76 -28q-33 -66 -164 -116q-115 -36 -216 -36q-272 0 -340 80q-12 15 -12 36v12q0 56 284 384q308 375 308 396
q32 72 32 128q-13 112 -112 112l-16 4q-67 0 -88 -124q0 -49 72 -60h36v-8q-132 -56 -208 -56h-4q-100 0 -100 88q0 97 148 188q78 40 168 40z" />
    <glyph glyph-name="three" unicode="3" horiz-adv-x="904" 
d="M590 1544q243 0 284 -164v-28q0 -131 -176 -268l-64 -36v-8q140 -67 140 -248q0 -199 -196 -384q-110 -84 -272 -84q-201 0 -268 120l-8 32v4q0 24 112 32q120 -7 120 -40q0 -76 48 -76q111 0 216 308q20 83 20 152q-13 140 -92 140l-20 4l-4 -4h-24q18 96 44 96
q80 0 196 184q24 68 24 100q0 100 -112 100q-84 -31 -84 -112v-16q0 -46 72 -56h32v-8q-126 -56 -204 -56h-4q-100 11 -100 72v16q0 123 200 212q65 16 120 16z" />
    <glyph glyph-name="four" unicode="4" horiz-adv-x="876" 
d="M246 1548q168 -19 168 -48v-4l-132 -408h4q212 0 212 24q100 336 100 420q25 11 76 16q172 -15 172 -56q-216 -615 -320 -1028q-18 -120 -24 -120q0 -12 -68 -20q-176 16 -176 64q200 575 200 600l-172 12l-252 -12l-4 4q136 430 136 540q30 12 80 16z" />
    <glyph glyph-name="five" unicode="5" horiz-adv-x="1048" 
d="M418 1548q282 -28 396 -28h80l116 8l8 -12v-24q0 -27 -44 -76q-39 12 -136 12h-140q-136 0 -136 -20l-108 -320q252 0 312 -228l8 -64q0 -233 -228 -412q-102 -60 -240 -60q-276 21 -276 160q0 19 112 28q116 0 116 -44q0 -72 60 -72q83 0 184 240q44 116 44 212
q0 152 -116 152l-220 -12l-4 4v4q136 433 136 536q25 11 76 16z" />
    <glyph glyph-name="six" unicode="6" horiz-adv-x="864" 
d="M614 1544h40q121 0 172 -108l8 -40q0 -117 -132 -164l-44 -4h-4q-68 0 -168 56v8h36q115 0 152 128v12q0 25 -40 28q-165 0 -300 -400h4q81 28 152 28h32q151 0 212 -176l8 -80v-4q0 -255 -244 -452q-98 -64 -200 -64q-180 0 -244 200q-24 88 -24 180q0 322 212 632
q179 220 372 220zM242 560q0 -164 76 -164q93 0 196 308q21 74 32 192q0 108 -52 108h-20q-160 0 -224 -312z" />
    <glyph glyph-name="seven" unicode="7" horiz-adv-x="748" 
d="M714 1540l4 -4v-8q0 -36 -176 -564q-168 -491 -168 -620q-28 -14 -76 -20q-117 0 -172 56q304 914 304 988l8 52l-148 8h-40l-204 -8l-4 -4l-12 28q5 43 44 84l168 -4q277 0 472 16z" />
    <glyph glyph-name="eight" unicode="8" horiz-adv-x="916" 
d="M642 1572q161 0 232 -156q12 -35 12 -80q0 -196 -236 -324l-20 -4v-4q76 -89 76 -208q0 -206 -196 -388q-116 -96 -256 -96q-155 0 -216 188l-8 60v20q0 197 164 364q79 71 112 80q-76 71 -76 180q0 213 244 340q86 28 168 28zM430 1164q0 -100 76 -100h4q71 0 144 172
q20 42 32 144q0 108 -68 108h-4q-107 0 -176 -256zM226 500q0 -104 60 -104q103 0 204 340q16 86 16 140v8q0 96 -48 96h-12q-104 0 -200 -332q-16 -77 -20 -148z" />
    <glyph glyph-name="nine" unicode="9" horiz-adv-x="968" 
d="M686 1572h16q138 0 220 -140q16 -44 16 -72v-36q0 -63 -160 -560q-132 -340 -300 -412q-87 -40 -192 -40q-188 0 -244 108q-12 20 -12 52q29 24 100 24h20q112 0 112 -44q0 -68 52 -68h8q147 0 324 608h-4q-51 -12 -96 -12h-48q-151 0 -208 156l-8 60q0 216 232 340
q83 36 172 36zM486 1172v-12q0 -96 56 -96h16q100 0 172 244l8 88q0 78 -56 92h-12q-104 0 -172 -232q-12 -37 -12 -84z" />
    <glyph glyph-name="colon" unicode=":" horiz-adv-x="412" 
d="M314 1284h8q60 -8 60 -52v-4q0 -44 -72 -64q-57 0 -68 52q0 57 72 68zM106 708q52 0 64 -52v-8q0 -47 -72 -60h-8q-60 8 -60 52v4q0 48 76 64z" />
    <glyph glyph-name="semicolon" unicode=";" horiz-adv-x="412" 
d="M314 1284h8q60 -8 60 -52v-4q0 -44 -72 -64q-57 0 -68 52q0 57 72 68zM106 708q52 0 64 -52v-12q-13 -120 -96 -120h-4l-4 4v4q36 27 36 52v4h-12q-60 8 -60 52v4q0 48 76 64z" />
    <glyph glyph-name="semicolon" unicode="&#x37e;" horiz-adv-x="412" 
d="M314 1284h8q60 -8 60 -52v-4q0 -44 -72 -64q-57 0 -68 52q0 57 72 68zM106 708q52 0 64 -52v-12q-13 -120 -96 -120h-4l-4 4v4q36 27 36 52v4h-12q-60 8 -60 52v4q0 48 76 64z" />
    <glyph glyph-name="less" unicode="&#x3c;" horiz-adv-x="572" 
d="M534 1172l8 -12v-12q-15 -112 -56 -112q-147 -52 -344 -140v-4q108 -75 276 -168v-8q0 -44 -56 -80h-4q-166 126 -312 196l-16 12v12q52 124 96 124q188 77 408 192z" />
    <glyph glyph-name="equal" unicode="=" horiz-adv-x="564" 
d="M150 1100l148 -8h96l128 8l12 -24q0 -37 -44 -88q-34 8 -160 12q-161 -4 -216 -12l-8 12v28q12 50 44 72zM78 884l148 -8h96l128 8l12 -28q-18 -66 -48 -84q-35 8 -152 12q-165 -4 -220 -12l-12 24q0 46 48 88z" />
    <glyph glyph-name="greater" unicode="&#x3e;" horiz-adv-x="572" 
d="M218 1172q133 -106 324 -204v-8q0 -55 -88 -128q-193 -76 -412 -192h-4l-8 8v8q0 110 76 124l320 132v4q-127 97 -272 168v8q0 54 64 80z" />
    <glyph glyph-name="question" unicode="?" horiz-adv-x="788" 
d="M418 1544q272 0 332 -188l8 -52q0 -113 -100 -188q-264 -221 -264 -288q-20 -84 -20 -148q-17 -20 -88 -20q-136 0 -164 56q65 203 92 232q81 87 224 208q76 91 84 192q0 128 -132 128q-84 -31 -84 -120q0 -56 72 -64h32v-8q-108 -48 -184 -48q-100 11 -100 88v8
q0 77 116 164q77 48 176 48zM182 560h4q120 -14 120 -108q0 -102 -152 -128q-124 21 -124 104q0 92 112 128z" />
    <glyph glyph-name="at" unicode="@" horiz-adv-x="1440" 
d="M846 1548q417 0 544 -344q20 -73 20 -144q0 -299 -292 -452q-106 -40 -192 -40h-44q-50 0 -80 52q-102 -52 -204 -52h-20q-177 0 -232 172l-8 84q0 189 156 368q111 112 240 112h28q86 0 100 -52v-4l-84 -44q-83 -61 -144 -148q-92 -159 -92 -272v-20q12 -100 68 -100h12
q126 0 200 388q64 216 92 216q56 32 108 32h8q71 0 92 -48q-172 -466 -172 -584v-8l8 -8q93 30 176 168q76 158 76 296q0 266 -244 316l-60 4h-28q-425 0 -592 -404q-48 -149 -48 -280q0 -212 224 -280q114 -36 232 -36h16q309 0 560 136l8 -12v-8q-30 -164 -100 -164
q-243 -72 -496 -72q-293 0 -484 108q-168 130 -168 404q0 388 348 612q206 108 468 108z" />
    <glyph glyph-name="A" unicode="A" horiz-adv-x="980" 
d="M670 1544h36q244 0 244 -272q0 -195 -180 -744q-16 -57 -16 -88v-4l4 -20h4q26 0 116 84h4q22 0 44 -84q-220 -92 -348 -92q-92 9 -92 60q32 120 204 612l-112 12q-132 0 -132 -24q-144 -388 -144 -472q-16 -62 -28 -172l-72 -16q-118 0 -172 56q245 854 436 1064v8
l-24 4q-52 0 -144 -88q-44 31 -44 84q248 92 416 92zM506 1108l100 -8h32q96 0 96 28q48 153 48 232q0 116 -32 116q-36 -12 -136 -156q-108 -184 -108 -212z" />
    <glyph glyph-name="B" unicode="B" horiz-adv-x="960" 
d="M602 1544h40q243 0 284 -156l4 -28q0 -158 -216 -296l-24 -12v-8q136 -72 136 -216v-44q0 -189 -188 -368q-117 -92 -248 -92q-78 8 -112 24q-28 -24 -76 -24q-149 11 -172 56v4q176 524 276 868q24 93 36 176l-4 16q-31 0 -120 -80h-8q-32 32 -40 80q212 100 432 100z
M610 1472l-120 -364h8v-4q96 0 200 176q28 65 28 100q0 92 -116 92zM454 996q-140 -406 -140 -508v-12q0 -44 44 -44q118 0 228 276q24 86 24 152q0 144 -124 144q-32 -3 -32 -8z" />
    <glyph glyph-name="C" unicode="C" horiz-adv-x="900" 
d="M650 1544h20q153 0 196 -120l4 -36q0 -114 -140 -160l-36 -4q-83 0 -172 64v4l16 -4q96 0 136 76q16 33 16 60q0 43 -36 48h-8q-138 0 -328 -484q-108 -294 -108 -456v-8q0 -84 44 -84h4q89 0 132 56l140 12q80 -6 80 -24q0 -55 -168 -136l-116 -24q-195 0 -268 188
q-28 88 -28 176q0 320 244 644q186 212 376 212z" />
    <glyph glyph-name="D" unicode="D" horiz-adv-x="992" 
d="M630 1548q216 0 292 -148q40 -84 40 -164v-52q0 -284 -228 -632q-182 -228 -352 -228q-49 0 -100 20q-34 -15 -80 -20q-149 11 -172 56v16q312 899 312 1036l-4 12h-4q-28 0 -112 -80h-8q-28 15 -44 80q228 104 460 104zM610 1476l-276 -856q-24 -88 -24 -136v-24
q0 -24 28 -24q172 0 340 480q60 215 60 356v20q0 125 -56 168q-14 12 -72 16z" />
    <glyph glyph-name="E" unicode="E" horiz-adv-x="832" 
d="M598 1544h32q123 0 164 -104q8 -16 8 -44v-4q0 -116 -132 -164l-36 -4q-75 0 -156 64v4h16q118 0 148 100v32q0 48 -36 48h-4q-117 0 -168 -232l-4 -48q0 -87 52 -152q-140 -85 -196 -256q-40 -99 -40 -208v-24q0 -112 44 -112q31 2 100 60q11 8 104 12q106 -4 112 -28
v-8q-109 -152 -304 -152q-137 0 -224 100q-48 84 -48 192q0 246 180 400l52 20q-32 88 -32 132q0 144 156 284q118 92 212 92z" />
    <glyph glyph-name="F" unicode="F" horiz-adv-x="956" 
d="M614 1544h24q216 0 280 -120l8 -48q0 -96 -132 -144l-36 -4h-8q-94 0 -164 60v4q119 0 140 80l4 16q0 67 -112 88h-8v-4l-120 -376h4l36 -4l80 8q20 -31 20 -76v-4q0 -29 -12 -32l-60 8q-112 0 -112 -20q-122 -354 -172 -636l-72 -16q-117 0 -172 56l168 512
q144 441 144 548l-4 4h-4q-26 0 -116 -84q-24 0 -44 84q204 100 440 100z" />
    <glyph glyph-name="G" unicode="G" horiz-adv-x="836" 
d="M602 1544h20q133 0 176 -104l8 -48q-29 -168 -168 -168q-72 0 -156 64v4l16 -4q113 0 148 104l4 36q0 44 -36 44h-8q-86 0 -232 -364q-132 -358 -132 -552q8 -116 56 -116q78 0 184 224q36 100 36 176v12q0 104 -68 140q-52 0 -52 84v8q0 13 12 28q86 -12 172 -12l124 8
q16 -30 20 -72q-5 -36 -16 -36l-52 4q68 -74 68 -184q0 -183 -176 -376q-124 -120 -284 -120q-156 0 -220 176q-16 58 -16 112v60q0 272 220 620q192 252 352 252z" />
    <glyph glyph-name="H" unicode="H" horiz-adv-x="1072" 
d="M870 1548q172 -15 172 -56q-312 -921 -312 -1060v-8q0 -8 12 -8q34 14 108 84h4q44 -38 44 -84q-220 -92 -348 -92q-92 10 -92 56l196 608h-4l-92 12q-112 0 -112 -28q-172 -518 -172 -632l-72 -16q-149 11 -172 56v4q312 927 312 1044l-4 16h-4q-23 0 -116 -80h-8
q-32 35 -40 80q213 100 344 100h8q88 -7 88 -60q0 -18 -120 -384h4l96 -12q104 0 104 28q100 329 100 416q25 11 76 16z" />
    <glyph glyph-name="I" unicode="I" horiz-adv-x="652" 
d="M538 1548q72 0 84 -52v-8q-308 -887 -308 -960q-16 -47 -16 -76v-32l8 -12q18 0 116 84h4q40 -31 40 -84q-143 -84 -272 -84q-160 21 -160 56l-4 4q316 926 316 1072h-8q-23 0 -112 -80h-8q-20 0 -40 80q211 92 360 92z" />
    <glyph glyph-name="J" unicode="J" horiz-adv-x="1036" 
d="M846 1544h4q134 -6 156 -48q-204 -592 -296 -932q-161 -240 -424 -240q-176 0 -240 104q-16 38 -16 56q42 28 112 28q120 0 120 -44q0 -72 56 -72q123 0 220 372q146 391 212 716q0 52 28 52z" />
    <glyph glyph-name="K" unicode="K" horiz-adv-x="1080" 
d="M514 1544h8q88 -6 88 -56v-8q0 -22 -120 -380h4l16 -4h24q186 0 260 368q0 72 32 72q17 8 64 8q112 0 160 -56q-94 -292 -232 -388q-93 -57 -144 -64q132 -79 132 -236q0 -72 -68 -292l-12 -76q4 -16 16 -16q22 6 112 84q44 -35 44 -84q-212 -92 -332 -92q-88 9 -88 56
q116 362 116 412v32q0 132 -124 160l-20 4q-172 -526 -172 -644q-28 -14 -76 -20q-117 0 -172 56q180 537 284 892q28 131 28 160l-4 12h-4q-26 0 -116 -84q-24 0 -44 84q208 100 340 100z" />
    <glyph glyph-name="L" unicode="L" horiz-adv-x="688" 
d="M466 1544q92 -8 92 -60v-4l-260 -808q-25 -67 -48 -192q0 -84 60 -84q55 0 124 100q68 12 140 12q84 0 84 -32q-26 -60 -108 -112q-100 -40 -220 -40q-237 0 -284 96q-16 39 -16 76v20q0 46 112 364q144 459 144 536v28h-8q-22 0 -112 -80h-4q-21 0 -44 80
q210 100 348 100z" />
    <glyph glyph-name="M" unicode="M" horiz-adv-x="1224" 
d="M514 1548q96 0 96 -68h4l-4 -24q0 -153 -28 -640v-4h4q188 649 212 712q49 12 84 12q122 0 176 -60q-44 -574 -44 -824v-96q0 -140 28 -140q16 0 88 84q64 -47 64 -84v-4q-203 -88 -320 -88q-79 0 -108 60l44 768v8h-4q-236 -726 -236 -812l-12 -8h-16q-38 0 -84 44
q36 429 36 716v8h-4q-212 -635 -212 -764q-28 -14 -76 -20q-118 0 -172 56q176 523 284 896q28 118 28 164l-4 4h-4q-26 0 -116 -84q-24 0 -44 84q216 104 340 104zM494 1120v-8h4v8h-4z" />
    <glyph glyph-name="N" unicode="N" horiz-adv-x="1072" 
d="M526 1536q88 -7 88 -56q-20 -214 -36 -720v-8h4q212 636 212 768q41 16 92 16q156 -16 156 -64q-324 -959 -324 -1112l4 -4q-31 -20 -172 -32q-88 9 -88 52v4q16 195 36 736v4h-4q-216 -652 -216 -776q-28 -14 -76 -20q-161 14 -172 60q312 910 312 1052l-8 8
q-25 0 -112 -80h-8q-20 0 -40 80q199 92 352 92zM574 748v-8h4v8h-4z" />
    <glyph glyph-name="O" unicode="O" horiz-adv-x="804" 
d="M534 1544h16q189 0 224 -332v-56q0 -342 -236 -664q-146 -164 -264 -164h-24q-149 0 -208 244q-12 74 -12 136q0 294 184 600q171 236 320 236zM210 508q0 -120 40 -120q93 0 252 472q92 317 92 480v40q0 104 -40 104q-87 0 -240 -436q-104 -342 -104 -540z" />
    <glyph glyph-name="P" unicode="P" horiz-adv-x="960" 
d="M614 1544h24q244 0 288 -152l4 -40q0 -145 -200 -288q-113 -72 -260 -72q-24 0 -40 -80q-152 -453 -152 -568q-24 -14 -72 -20q-176 18 -176 60q312 908 312 1048v12h-8q-23 0 -112 -80h-8q-20 0 -40 80q204 100 440 100zM614 1476l-124 -380h4l4 -4q84 0 188 160
q40 72 40 124q0 100 -112 100z" />
    <glyph glyph-name="Q" unicode="Q" horiz-adv-x="824" 
d="M530 1544h16q174 0 224 -292l4 -92q0 -309 -212 -636q-57 -66 -124 -128q56 0 140 100l120 12q96 0 96 -32q-95 -152 -384 -152q-88 5 -88 12q-18 -8 -52 -8h-24q-170 0 -216 308v108q0 284 212 608q160 192 288 192zM206 504q9 -108 28 -108v4l-8 36q0 68 68 68h16
q20 0 40 -12q90 159 168 436q76 274 76 440q-5 116 -44 116q-84 0 -240 -440q-104 -350 -104 -540z" />
    <glyph glyph-name="R" unicode="R" horiz-adv-x="956" 
d="M614 1544h28q241 0 284 -156v-40q0 -145 -196 -284l-56 -28q132 -79 132 -236q0 -72 -64 -280q-16 -53 -16 -88q4 -16 16 -16q22 6 112 84q44 -35 44 -84q-212 -92 -332 -92q-88 9 -88 56q116 357 116 424v16q0 120 -96 156l-48 12q-126 -366 -176 -644q-33 -20 -72 -20
q-117 0 -172 56q180 536 264 828q48 162 48 232l-4 4h-4q-26 0 -116 -84q-44 35 -44 84q204 100 440 100zM610 1472l-120 -376h16q92 0 200 196q20 63 20 88q0 68 -68 92l-48 4v-4z" />
    <glyph glyph-name="S" unicode="S" horiz-adv-x="892" 
d="M566 1544h8q207 0 276 -108l12 -44v-28q-38 -136 -168 -136h-16q-65 0 -156 56v8q136 14 136 96l4 16q-16 80 -68 80q-69 0 -152 -112q-32 -59 -32 -112q0 -83 128 -188q184 -179 184 -340v-12q0 -186 -176 -320q-130 -76 -240 -76q-190 0 -272 160l-4 12q0 11 112 16
q108 -4 108 -20v-32q0 -72 48 -72h4q100 0 192 276v48q0 118 -216 268q-104 94 -104 188v20q0 177 212 308q97 48 180 48z" />
    <glyph glyph-name="T" unicode="T" horiz-adv-x="952" 
d="M478 1548h20q348 0 412 -56l12 -16q0 -20 -16 -48q-74 16 -176 24q-44 0 -44 -40q-229 -643 -308 -1000q-6 -76 -24 -76l-60 -12q-118 0 -172 56q168 499 288 912l24 144l-4 4h-4q-106 -11 -196 -68q-67 8 -180 76l-20 28v8q0 43 448 64z" />
    <glyph glyph-name="U" unicode="U" horiz-adv-x="1024" 
d="M462 1544h24q76 -12 76 -60l-268 -836q-36 -120 -36 -176v-16q0 -60 56 -60q118 0 212 352q220 632 220 772q35 16 84 16q115 0 164 -56q-311 -911 -312 -1036v-20q0 -8 12 -8q20 4 108 84h4q22 0 44 -84q-220 -92 -348 -92q-72 10 -72 24q-49 -16 -152 -24
q-208 0 -244 144l-4 32q0 51 136 440q94 297 124 472v32h-8q-20 0 -112 -80h-8q-28 26 -40 80q212 100 340 100z" />
    <glyph glyph-name="V" unicode="V" horiz-adv-x="976" 
d="M390 1544h12q84 -6 84 -56q-35 -135 -252 -784q-36 -126 -36 -208q0 -34 20 -112q138 122 204 272q88 140 196 476q76 262 76 388q27 24 100 24h36q89 0 116 -60q-201 -667 -344 -936q-146 -224 -292 -224q-216 0 -252 108q-28 50 -28 144v28q0 182 176 740l16 84
q-5 20 -12 20h-4q-20 0 -112 -80h-4q-40 31 -40 84q214 92 340 92z" />
    <glyph glyph-name="W" unicode="W" horiz-adv-x="1452" 
d="M454 1544h32q76 -11 76 -64q-232 -704 -300 -944l-8 -72q0 -68 60 -68q117 0 220 376q212 619 212 748q48 24 124 24h8q94 0 116 -64q-217 -616 -300 -960l-8 -40q0 -84 60 -84q113 0 200 320q228 656 228 804q59 24 104 24h32q98 0 112 -64v-4q-164 -474 -296 -928
q-161 -224 -416 -224q-120 0 -196 56q-130 -56 -240 -56q-161 0 -220 92q-16 22 -24 84q0 46 124 408q136 430 136 520v8l-8 8q-21 0 -112 -80h-4q-23 0 -44 80q213 100 332 100z" />
    <glyph glyph-name="X" unicode="X" horiz-adv-x="1080" 
d="M530 1548q84 -17 84 -52q-92 -230 -92 -320q0 -76 60 -76h4q116 0 204 328q8 108 28 108l72 8h20q140 -8 140 -52v-4q-69 -189 -172 -328q-105 -108 -136 -108q80 -73 80 -192v-16q0 -50 -76 -404v-12l8 -12q24 0 112 76h4q44 -35 44 -76q-224 -92 -344 -92q-61 0 -96 44
v8q144 400 144 488q0 99 -52 140h-12q-143 0 -280 -600q0 -37 -100 -72l-48 -4h-8q-74 0 -88 52q135 429 220 552q83 106 140 124v4q-68 73 -68 184q0 58 24 192q-5 24 -12 24h-4q-21 0 -112 -80q-35 21 -48 76q212 92 360 92z" />
    <glyph glyph-name="Y" unicode="Y" horiz-adv-x="936" 
d="M386 1548q48 0 84 -44v-4q-88 -236 -88 -316v-20q8 -64 52 -64q126 0 208 308l20 124q43 12 84 12h16q114 0 144 -44v-12q-122 -331 -284 -428l-92 -40q-184 -562 -184 -676q-15 -13 -72 -20q-176 18 -176 60q148 431 212 640q-128 51 -128 220q0 50 20 204q0 10 -16 12
q-23 0 -108 -80q-48 35 -48 76q207 92 356 92z" />
    <glyph glyph-name="Z" unicode="Z" horiz-adv-x="1076" 
d="M762 1548q284 -8 284 -56v-8q0 -105 -556 -764q-176 -214 -176 -236l-4 -28q0 -44 64 -52h16q74 0 148 88q45 12 116 12h24q84 -2 84 -24v-8q-120 -148 -380 -148q-352 0 -352 128q0 56 412 536q332 412 332 448l4 12l-28 8q-119 0 -256 -84q-117 0 -200 108v12
q144 56 468 56z" />
    <glyph glyph-name="bracketleft" unicode="[" horiz-adv-x="864" 
d="M450 1688q98 -12 228 -12q71 0 148 12l8 -12v-24q0 -39 -44 -76l-120 8h-160q-188 -655 -348 -1292l140 -4h4l156 8v-4l4 -16v-8q0 -41 -44 -80l-124 8h-140l-116 -12h-4q-8 0 -8 12q212 719 392 1476q28 10 28 16z" />
    <glyph glyph-name="backslash" unicode="\" horiz-adv-x="944" 
d="M186 1548q92 0 92 -48q138 -310 636 -1120q0 -38 -156 -56q-87 0 -96 52q-118 286 -632 1112v12q0 33 156 48z" />
    <glyph glyph-name="bracketright" unicode="]" horiz-adv-x="856" 
d="M442 1688q98 -12 228 -12q71 0 148 12l8 -24v-12q-192 -682 -380 -1428l-32 -36l-144 8h-84l-148 -8l-8 12v4q0 58 44 92l256 -8h24q15 0 84 276q124 442 268 1020h-160l-140 -8l-8 24q0 37 44 88z" />
    <glyph glyph-name="asciicircum" unicode="^" horiz-adv-x="480" 
d="M350 1676h4q80 -20 80 -48l-4 -100q4 -171 20 -256q-25 -20 -84 -20q-36 0 -56 16q16 70 16 272v48q-56 -84 -164 -324q-24 -12 -68 -12q-52 0 -64 24q129 183 212 364q68 36 108 36z" />
    <glyph glyph-name="underscore" unicode="_" horiz-adv-x="572" 
d="M530 1688h12v-4q-216 -743 -400 -1484q-37 -16 -92 -16h-12l-8 8q212 709 392 1476q0 18 108 20z" />
    <glyph glyph-name="grave" unicode="`" horiz-adv-x="400" 
d="M78 1684h36q80 0 80 -48q98 -236 176 -368q-29 -16 -68 -16q-70 0 -80 40q-60 162 -192 372v4q0 16 48 16z" />
    <glyph glyph-name="a" unicode="a" horiz-adv-x="844" 
d="M430 1064h20q72 0 104 -44v-12q-2 -9 -68 -36q-163 -103 -236 -324q-16 -62 -16 -112v-12q0 -88 76 -104q131 0 208 404q60 192 76 192q56 44 124 44q71 0 96 -48q-172 -465 -172 -592q0 -12 16 -12q20 3 108 84h4q23 0 44 -84q-159 -84 -224 -84q-63 0 -96 56
q-117 -56 -200 -56q-186 0 -244 144q-20 60 -20 112q0 220 192 404q97 80 208 80z" />
    <glyph glyph-name="b" unicode="b" horiz-adv-x="848" 
d="M526 1536q88 0 88 -56q-28 -106 -144 -444q37 36 104 36h24q158 0 216 -204l4 -56q0 -229 -232 -416q-118 -72 -216 -72q-63 8 -88 20q-28 -15 -76 -20q-127 0 -176 60q312 906 312 1032v28h-8q-20 0 -112 -80h-4q-21 0 -44 80q205 92 352 92zM458 1008
q-144 -437 -144 -532q0 -44 32 -44h4q95 0 212 188q44 132 44 212q0 121 -92 164z" />
    <glyph glyph-name="c" unicode="c" horiz-adv-x="732" 
d="M434 1064q217 0 264 -152l4 -20v-4q-123 -134 -204 -156v4q52 169 64 236q-8 24 -16 24q-93 -22 -200 -152q-116 -180 -116 -304q0 -101 72 -120h8q50 0 120 92q38 28 96 28q74 -3 84 -28v-8q0 -41 -120 -128q-91 -52 -220 -52q-179 0 -232 176l-8 72v16q0 241 232 428
q89 48 172 48z" />
    <glyph glyph-name="d" unicode="d" horiz-adv-x="992" 
d="M858 1524h20q57 0 84 -40v-4q-264 -794 -312 -968l-12 -80q5 -24 12 -24q23 0 116 84q44 -33 44 -80v-8q-157 -80 -228 -80q-59 0 -88 52q-121 -52 -224 -52q-167 0 -228 156l-12 76v36q0 238 232 424q90 48 168 48q102 0 124 -52q0 -14 -80 -48q-153 -95 -232 -344
l-12 -76q0 -124 80 -124q127 0 208 408q116 365 216 648q61 48 124 48z" />
    <glyph glyph-name="e" unicode="e" horiz-adv-x="732" 
d="M486 1072q156 0 212 -172l4 -12q0 -170 -300 -348l-144 -76q0 -44 64 -48h4q48 0 144 108q49 16 80 16q70 0 88 -32q0 -30 -156 -124q-119 -68 -212 -68q-172 0 -232 172l-8 72v16q0 221 220 412q115 84 236 84zM246 588v-12q256 142 256 284q0 80 -56 108h-8
q-90 0 -172 -252q-20 -66 -20 -128z" />
    <glyph glyph-name="f" unicode="f" horiz-adv-x="984" 
d="M522 1528q49 0 84 -32q52 24 140 32q151 0 208 -184q-85 -104 -128 -104h-12q-59 0 -68 120q-17 64 -52 64q-112 0 -228 -412q-28 -65 -28 -128q4 -20 16 -20q22 5 112 84q44 -34 44 -84q-159 -84 -216 -84l-4 4q-64 -178 -116 -456q-43 -12 -84 -12q-160 17 -160 60
q312 903 312 1048v4q0 8 -12 8q-27 -12 -112 -84h-4q-40 45 -40 84q220 92 348 92z" />
    <glyph glyph-name="g" unicode="g" horiz-adv-x="1216" 
d="M814 1064q102 0 124 -52q-4 -15 -100 -60q-144 -110 -208 -324l-16 -88q0 -102 72 -120h8q81 0 136 152l124 432q63 56 132 56q90 0 100 -52q-217 -756 -412 -1012q-99 -132 -280 -132h-16q-156 0 -212 120q-20 48 -20 92v28l4 88h-28q-44 0 -144 -80q-24 0 -48 72
q200 92 336 92h28q46 0 80 -44q-16 -71 -16 -136v-44q0 -84 52 -96q113 0 240 376h-4l-92 -8q-167 0 -228 156l-12 76v36q0 238 232 424q90 48 168 48z" />
    <glyph glyph-name="h" unicode="h" horiz-adv-x="936" 
d="M522 1528q92 -11 92 -60l-144 -444h4q108 40 244 40h32q156 -11 156 -76v-4q-184 -494 -184 -640q0 -26 -92 -28q-160 17 -160 60q64 119 164 492l12 88q0 24 -28 24h-8q-225 0 -332 -640q0 -22 -88 -24q-160 15 -160 60q312 907 312 1052q0 8 -12 8q-22 -6 -112 -84
q-44 35 -44 84q198 86 348 92z" />
    <glyph glyph-name="i" unicode="i" horiz-adv-x="564" 
d="M410 1352q124 -16 124 -116q-33 -120 -148 -120h-4q-86 0 -120 76l-4 36q0 84 124 120zM334 1068h16q84 0 84 -56q-172 -470 -172 -592l8 -12q26 0 116 84h4q22 0 44 -84q-137 -80 -244 -80l-44 -4q-89 0 -116 60q0 116 172 596q34 84 68 84z" />
    <glyph glyph-name="j" unicode="j" horiz-adv-x="1256" 
d="M1094 1352q120 -23 120 -92v-28q0 -78 -120 -112l-32 -4q-120 17 -120 96l-4 4q0 113 156 136zM1138 1068q88 -6 88 -56q-192 -698 -352 -920q-174 -228 -380 -228h-24q-163 0 -216 160l-8 72v8q0 63 8 84l-4 4h-28q-43 0 -144 -80q-23 0 -48 72q200 92 336 92h28
q46 0 80 -44q-16 -69 -16 -144v-36q0 -81 52 -96q188 0 444 948l4 40v24l-8 8h-4q-20 0 -112 -80h-4q-21 0 -44 80q205 92 352 92z" />
    <glyph glyph-name="k" unicode="k" horiz-adv-x="916" 
d="M526 1528q77 0 88 -56q-32 -126 -148 -456h4q97 48 208 48q162 0 204 -96l4 -32q0 -108 -200 -184q80 -48 80 -120q0 -65 -48 -300q-34 -16 -84 -16q-164 17 -164 60q68 154 68 204v20q0 84 -160 84h-8v4q71 72 236 196q56 53 56 84q-5 28 -16 28h-4q-143 -39 -276 -288
q-88 -312 -88 -376q-34 -16 -84 -16q-164 17 -164 60q316 915 316 1040l-8 20q-23 0 -116 -84h-4q-30 18 -44 84q221 92 352 92z" />
    <glyph glyph-name="l" unicode="l" horiz-adv-x="620" 
d="M490 1536q75 0 100 -56q-300 -849 -300 -908q-28 -72 -28 -152l8 -12q26 0 116 84h4q22 0 44 -84q-139 -84 -280 -84h-4q-116 11 -116 64l-4 12q56 236 248 856l36 172l-4 16h-4q-26 0 -116 -84q-44 33 -44 80v8q206 83 344 88z" />
    <glyph glyph-name="m" unicode="m" horiz-adv-x="1380" 
d="M722 1064h32q97 0 144 -48q112 48 264 48h32q152 -11 152 -68l4 -16q-180 -482 -180 -608l-4 -28q0 -26 -92 -28q-160 17 -160 60q77 147 168 516l8 64q0 24 -28 24h-8q-220 0 -328 -612q0 -44 -32 -44q-20 -8 -60 -8q-107 0 -160 52v4q172 442 172 576v8q0 24 -32 24
q-228 0 -336 -648q-34 -16 -84 -16q-164 17 -164 60q176 469 176 564q-5 28 -12 28q-26 0 -116 -84q-23 0 -48 84q216 92 348 92q88 -10 88 -40q110 44 256 44z" />
    <glyph glyph-name="n" unicode="n" horiz-adv-x="936" 
d="M710 1064h36q156 -9 156 -68l4 -12q-184 -501 -184 -648q-28 -20 -88 -20q-164 15 -164 64q48 78 144 400q32 126 32 176q0 24 -32 24q-228 0 -340 -652q-43 -12 -84 -12q-112 0 -160 56q172 467 172 576l-4 20h-4q-23 0 -116 -80h-8q-28 19 -40 80q213 92 348 92
q88 -11 88 -40q110 44 244 44z" />
    <glyph glyph-name="o" unicode="o" horiz-adv-x="736" 
d="M474 1068q153 0 220 -180l12 -76l-4 -20v-16q0 -208 -228 -396q-107 -68 -220 -68q-160 0 -216 192q-8 18 -8 52v44q0 196 200 376q116 92 244 92zM226 504q0 -108 56 -108q119 0 216 384l8 96q-7 108 -48 108q-117 0 -208 -324q-24 -91 -24 -156z" />
    <glyph glyph-name="p" unicode="p" horiz-adv-x="996" 
d="M518 1072q92 -6 92 -56q36 48 128 48q154 0 216 -168l12 -88q0 -242 -244 -432q-90 -60 -180 -60h-32q-51 0 -116 36q-116 -383 -116 -476q-33 -16 -96 -16q-145 16 -152 60q312 908 312 1052q0 8 -12 8q-22 -6 -112 -84q-44 35 -44 84q198 85 344 92zM610 1000
q-148 -435 -148 -532q6 -44 20 -44h24q82 10 172 136q76 137 76 264q0 125 -112 168z" />
    <glyph glyph-name="q" unicode="q" horiz-adv-x="848" 
d="M642 1072q120 0 176 -56v-4q-312 -911 -312 -1035v-24h8q19 0 116 79q25 0 44 -79q-201 -92 -352 -92q-88 7 -88 56v4l136 415q-14 -8 -96 -12q-173 0 -232 160l-12 96q0 248 228 432q89 52 176 52t120 -44v-12q-6 -13 -64 -36q-163 -102 -236 -316q-20 -63 -20 -116v-16
q11 -100 64 -100l12 -4q122 0 212 404q20 50 52 232z" />
    <glyph glyph-name="r" unicode="r" horiz-adv-x="812" 
d="M578 1060q147 0 204 -172v-12q-80 -104 -128 -104h-8q-45 0 -60 68q0 103 -64 116h-4q-101 0 -188 -388q-32 -106 -52 -236q-28 -20 -92 -20q-142 14 -156 60q172 460 172 572v12l-8 8h-4q-20 0 -112 -80h-4q-23 0 -44 80q204 92 356 92q30 0 68 -20q63 24 124 24z" />
    <glyph glyph-name="s" unicode="s" horiz-adv-x="772" 
d="M522 1064q166 0 220 -180v-4q-84 -104 -128 -104h-8q-55 0 -60 72q0 136 -56 136h-12q-59 0 -112 -92l-8 -24v-20q0 -50 124 -100q148 -89 148 -192v-16q0 -139 -232 -216q-61 -12 -116 -12q-194 0 -244 100l-8 40q0 88 124 88q68 0 84 -32l-4 -32q10 -56 64 -56h12
q104 26 104 100v8q0 71 -176 136q-108 67 -108 140q0 126 228 228q95 32 164 32z" />
    <glyph glyph-name="t" unicode="t" horiz-adv-x="616" 
d="M486 1536q75 0 100 -56v-4l-116 -328l80 8q20 -24 20 -52v-20q0 -21 -12 -24l-116 4q-184 -515 -184 -636v-8l12 -12q20 1 112 84h4q23 0 44 -84q-139 -84 -280 -84h-4q-116 13 -116 60v16q26 158 184 656l4 12l-4 -4h-24l-40 -4q-16 28 -16 48v36q0 10 16 12l92 -4
q68 222 68 280l-4 12h-4q-26 0 -116 -84q-44 33 -44 80v8q206 83 344 88z" />
    <glyph glyph-name="u" unicode="u" horiz-adv-x="920" 
d="M350 1056q96 -15 96 -52q-152 -405 -152 -516q7 -76 76 -76q143 0 220 396q62 208 84 208q53 36 108 36h12q75 0 96 -48q-165 -431 -172 -572v-20l8 -8h12q20 8 100 80h8q28 -15 44 -80q-139 -79 -220 -84h-8q-75 0 -104 72v4q-115 -80 -236 -80q-160 0 -220 140
q-12 43 -12 72v16q0 70 108 396v12l-4 4h-4q-28 0 -112 -76q-48 29 -48 76q202 100 320 100z" />
    <glyph glyph-name="v" unicode="v" horiz-adv-x="944" 
d="M374 1052q70 0 100 -52q-136 -343 -136 -448v-12q7 -118 60 -132q121 0 232 412q47 196 76 196q41 23 92 36q114 -8 116 -52q-135 -443 -244 -548q-124 -136 -296 -136h-12q-165 0 -220 192l-8 68v4q0 50 64 348v24q0 8 -12 8q-33 -14 -108 -76q-26 0 -48 76
q228 92 344 92z" />
    <glyph glyph-name="w" unicode="w" horiz-adv-x="1392" 
d="M374 1052q61 0 96 -44l-108 -320q-24 -75 -24 -116v-16l-4 -4l4 -4v-24q0 -82 56 -116q141 0 272 552q0 64 156 88h20q62 0 76 -36v-4l-112 -332q-20 -68 -24 -124q17 -144 60 -144q143 0 276 568q0 39 128 76q103 -5 116 -52q-158 -504 -288 -604q-103 -80 -252 -80
q-128 0 -196 80h-4q-96 -80 -248 -80h-16q-164 0 -220 164l-8 84q0 57 68 372v12l-8 12q-29 -3 -112 -76h-4q-44 35 -44 76q222 92 344 92z" />
    <glyph glyph-name="x" unicode="x" horiz-adv-x="944" 
d="M374 1052q96 -15 96 -52q-16 -93 -16 -148q0 -100 40 -120h20q96 0 192 284q59 36 108 36q70 0 100 -52q-87 -223 -192 -292l-80 -48q56 -69 56 -180q0 -51 -8 -76l20 -4q55 0 152 80h8q32 -18 44 -72q-207 -92 -356 -92q-63 0 -88 52q16 60 16 140v32q-9 96 -48 96h-12
q-91 0 -192 -288q-53 -32 -116 -32q-55 0 -88 44q52 184 160 280q78 62 112 64q-60 75 -60 180l8 80h-28q-48 0 -144 -80h-4q-44 35 -44 76q222 92 344 92z" />
    <glyph glyph-name="y" unicode="y" horiz-adv-x="1188" 
d="M618 1048q63 0 96 -44v-4q-136 -364 -136 -452q0 -99 52 -140h12q138 0 272 564q44 76 152 76q92 -16 92 -52q-189 -759 -364 -1004q-113 -140 -252 -140h-68q-190 0 -228 192v44l4 88l-4 4h-8q-65 0 -156 -80h-8q-32 18 -44 72q201 92 356 92q84 -15 84 -44l-12 -140
v-44q0 -92 60 -92q103 0 220 384q-51 -16 -124 -16q-179 0 -232 164l-8 76v4q0 68 64 360l4 28l-4 12h-4q-28 0 -112 -76q-48 29 -48 76q213 92 344 92z" />
    <glyph glyph-name="z" unicode="z" horiz-adv-x="856" 
d="M622 1056h116q69 0 88 -36v-24q-52 -202 -480 -532l-68 -56q18 -8 56 -8q152 0 284 76q44 -25 44 -80q-8 -68 -40 -68q-161 -16 -480 -16q-99 0 -112 56v8q0 31 120 128q378 370 392 452l-80 8q-131 0 -212 -84q-44 27 -44 88q0 52 32 76q214 12 384 12z" />
    <glyph glyph-name="braceleft" unicode="{" horiz-adv-x="856" 
d="M818 1688l8 -36q-27 -76 -44 -76l-204 8h-80q-8 -2 -92 -304q-77 -316 -92 -316l-104 -24v-8q96 -23 96 -32l-156 -612h104q129 0 192 12l12 -24q0 -49 -48 -88l-212 8h-24l-136 -8l-8 12v12l140 520l24 92q-72 6 -72 44l-8 48q34 132 140 132l152 592q19 33 36 44
l148 -8h20q135 0 208 12z" />
    <glyph glyph-name="bar" unicode="|" horiz-adv-x="576" 
d="M510 1684h28l8 -8q-212 -710 -400 -1480q-43 -12 -84 -12h-24l-4 4h-4q112 341 372 1364q20 124 40 124z" />
    <glyph glyph-name="braceright" unicode="}" horiz-adv-x="860" 
d="M446 1688l4 -4h4l216 -8q71 0 148 12q12 -15 12 -28l-168 -612q72 -7 72 -40q8 -18 8 -52v-4q0 -52 -80 -116q-64 -7 -64 -28l-148 -580l-32 -40l-144 8h-76l-160 -8l-8 24q0 39 48 88l4 -4h4l244 -8h28q15 19 120 408q44 178 60 212q107 19 112 32q-82 20 -100 32
q112 417 156 612h-152l-144 -8l-8 12v24q0 27 44 76z" />
    <glyph glyph-name="asciitilde" unicode="~" horiz-adv-x="600" 
d="M210 1036q44 0 188 -48l36 -4q60 0 128 52l8 -12v-20q0 -91 -160 -124h-20q-42 0 -188 48l-36 4q-59 0 -128 -52l-8 24v8q0 80 128 116q18 8 52 8z" />
    <glyph glyph-name="Adieresis" unicode="&#xc4;" horiz-adv-x="976" 
d="M866 1748h20q52 -13 52 -52q-16 -64 -64 -64h-24q-52 14 -52 48v8q0 46 68 60zM674 1740h4q60 -9 60 -48v-12q0 -47 -76 -60q-64 11 -64 56q17 64 76 64zM678 1544q268 0 268 -256v-44q0 -177 -188 -756l-4 -40v-24l8 -8h4q20 0 112 80h4q20 0 44 -80q-205 -92 -352 -92
q-88 6 -88 56q31 126 204 616l-92 8h-36l-112 -8q-172 -450 -172 -652q-27 -20 -92 -20q-101 0 -156 52v8q223 760 396 1012q40 36 40 52h-4l-16 4h-8q-52 0 -140 -88q-44 29 -44 88q272 92 424 92zM498 1104l132 -8q100 0 100 24q52 154 52 240q-7 112 -24 112h-4
q-41 0 -172 -204z" />
    <glyph glyph-name="Aring" unicode="&#xc5;" horiz-adv-x="980" 
d="M738 1780h16q124 -14 124 -80v-4q0 -85 -192 -108q-118 0 -136 88q0 53 108 92q29 12 80 12zM662 1684v-12q0 -33 40 -36v-4q68 8 68 64q-5 40 -40 40h-8q-60 -8 -60 -52zM678 1544q201 0 252 -140q16 -59 20 -140q0 -189 -184 -752l-12 -76v-12l8 -8h4q17 0 116 80
q23 0 44 -80q-202 -92 -352 -92q-88 9 -88 52q40 150 204 620h-4l-88 8h-36l-112 -8q-172 -459 -172 -652q-27 -20 -92 -20q-156 16 -156 64q207 680 356 948l80 104v4l-8 8h-20q-51 0 -140 -88q-44 38 -44 84q115 50 300 84zM502 1104h4l132 -8q96 0 96 32q48 141 48 236
q0 92 -24 108h-4q-42 -10 -140 -156q-93 -154 -112 -212z" />
    <glyph glyph-name="Ccedilla" unicode="&#xc7;" horiz-adv-x="904" 
d="M674 1544q149 0 196 -112l4 -36v-24q-37 -148 -172 -148q-85 0 -168 60v4q122 0 156 96l4 24v20q0 31 -24 44h-16q-148 0 -348 -536q-88 -258 -88 -380v-16l-4 -4l4 -4v-20q0 -72 44 -72q90 0 136 56q36 8 140 12q80 -6 80 -24q0 -31 -108 -108q-98 -48 -180 -48h-24
l-8 -8v-8q0 -19 40 -40q19 -19 24 -44q0 -91 -196 -112q-117 0 -136 88q15 12 36 12h48q27 0 36 -40q21 -16 44 -16q56 10 56 64l-40 52v8q0 21 24 56q-81 24 -136 104q-60 97 -60 232v8q0 376 300 712q162 148 336 148z" />
    <glyph glyph-name="Eacute" unicode="&#xc9;" horiz-adv-x="872" 
d="M778 1792h16q48 0 48 -16q-95 -103 -136 -176l-64 -12q-64 5 -64 20v4q47 55 116 168q42 12 84 12zM618 1544q129 0 176 -108l4 -36v-20q0 -84 -92 -140q-29 -16 -64 -16h-16q-76 0 -148 60v4h8q115 0 152 92l4 32q0 56 -36 56h-12q-105 0 -160 -216l-4 -48v-20
q0 -91 52 -148q-138 -73 -208 -276q-32 -107 -32 -204q0 -95 40 -116h4q35 0 104 60q20 8 72 8h60q67 0 80 -24v-12q-106 -148 -296 -148q-232 0 -272 212l-4 52v48q0 206 160 364l72 40q-32 52 -32 124q0 197 236 340q50 30 152 40z" />
    <glyph glyph-name="Ntilde" unicode="&#xd1;" horiz-adv-x="1072" 
d="M630 1764h16q23 0 164 -36h16q33 0 84 24l8 -28q0 -80 -20 -80l-84 -16q-27 0 -164 36h-40q-27 0 -64 -24q-12 4 -12 24v36q0 56 44 56q18 8 52 8zM506 1532h24q66 0 80 -44l-36 -744v-4h4q216 647 216 776q33 16 68 16h24q106 0 156 -52q-324 -980 -324 -1116v-16
q-108 -24 -164 -24q-96 7 -96 56q36 429 36 716l4 16v4h-4q-216 -641 -216 -776q-41 -16 -92 -16q-147 14 -156 60q312 910 312 1052l-8 8q-17 0 -116 -84q-28 0 -44 84q209 88 332 88z" />
    <glyph glyph-name="Odieresis" unicode="&#xd6;" horiz-adv-x="804" 
d="M650 1748h24q52 -14 52 -48v-8q0 -45 -68 -60h-20q-52 13 -52 52q16 64 64 64zM462 1740h4q64 -13 64 -52q0 -55 -80 -68q-60 10 -60 48v16q0 41 72 56zM546 1544q131 0 196 -180q32 -94 32 -200q0 -321 -212 -640q-158 -200 -304 -200q-163 0 -220 252l-8 88v72
q0 299 216 616q153 192 300 192zM206 504q8 -116 36 -116h8q94 0 256 488q88 316 88 488q-7 116 -36 116q-117 0 -288 -580q-64 -257 -64 -396z" />
    <glyph glyph-name="Udieresis" unicode="&#xdc;" horiz-adv-x="1020" 
d="M786 1748h20q52 -13 52 -52q-16 -64 -64 -64h-24q-52 14 -52 48v4q0 52 68 64zM594 1740h4q60 -9 60 -48v-12q0 -47 -76 -60q-55 0 -64 56q17 64 76 64zM470 1544q92 -11 92 -68q-237 -706 -304 -960l-4 -52q0 -68 48 -68h16q114 0 224 400q200 581 200 720q37 16 68 16
h24q108 0 156 -52v-8q-310 -908 -312 -1044l4 -12h16q40 24 104 84q44 -33 44 -88h-4q-205 -88 -344 -88q-33 0 -76 20q-75 -20 -152 -20q-167 0 -224 100q-16 39 -16 76v4q0 44 132 436q128 400 128 492l-4 12q-27 0 -116 -84h-4q-44 35 -44 84q227 100 348 100z" />
    <glyph glyph-name="aacute" unicode="&#xe1;" horiz-adv-x="844" 
d="M638 1300h48q30 0 32 -12v-4q-97 -104 -136 -176l-56 -8h-28q-44 6 -44 20q47 55 116 168q37 12 68 12zM438 1064q116 -12 116 -56q-6 -12 -72 -40q-160 -94 -236 -340q-12 -38 -12 -72v-36q11 -100 72 -100h4q130 0 200 376q68 224 88 224q56 36 112 36h16q61 0 88 -44
q-172 -473 -172 -572v-12l4 -20h8q20 0 112 80h4q23 0 44 -80q-139 -79 -220 -84h-4q-62 0 -100 52q-100 -52 -220 -52q-162 0 -224 148q-16 60 -16 108q0 210 176 388q108 96 232 96z" />
    <glyph glyph-name="agrave" unicode="&#xe0;" horiz-adv-x="844" 
d="M426 1300h48q80 0 80 -56q24 -65 56 -120v-4q0 -17 -56 -20h-24q-64 0 -64 52q-41 85 -76 128v4q5 16 36 16zM438 1064q116 -17 116 -44v-16q-2 -9 -60 -28q-172 -100 -252 -356l-8 -76v-16q0 -108 84 -108q57 0 112 104q46 103 104 352q45 156 92 156q29 24 84 24h16
q74 0 88 -52q-172 -456 -172 -576l4 -20h8q21 0 112 80h4q23 0 44 -80q-139 -79 -220 -84h-4q-62 0 -100 52q-100 -52 -220 -52q-167 0 -228 160l-12 96q0 204 172 384q109 100 236 100z" />
    <glyph glyph-name="acircumflex" unicode="&#xe2;" horiz-adv-x="844" 
d="M578 1300h56q48 0 48 -20q0 -76 24 -164q-24 -16 -68 -16h-16q-56 0 -56 36v8h-4q-12 -40 -44 -40l-28 -4h-24q-52 3 -52 16v4q38 46 116 168q14 12 48 12zM434 1064q120 -16 120 -44v-16l-80 -40q-148 -91 -228 -336q-12 -48 -12 -88v-16q0 -87 72 -104h12
q122 0 204 416q56 184 80 184q51 36 108 36h16q70 0 88 -48q-172 -466 -172 -584l4 -16h8q21 0 112 80h8q20 0 40 -80q-148 -84 -220 -84h-4q-62 0 -100 52q-102 -52 -212 -52q-162 0 -224 132q-24 66 -24 120q0 205 168 384q113 104 236 104z" />
    <glyph glyph-name="adieresis" unicode="&#xe4;" horiz-adv-x="844" 
d="M694 1260q64 -8 64 -52q0 -58 -76 -68q-64 8 -64 52q0 58 76 68zM482 1248h20q56 -5 56 -48v-12q0 -43 -68 -56h-20q-41 0 -52 56q21 60 64 60zM434 1064q120 -16 120 -44v-16l-80 -40q-96 -74 -148 -152q-92 -157 -92 -280q0 -112 84 -112q120 0 204 412q57 188 80 188
q51 36 108 36h16q70 0 88 -48q-172 -466 -172 -588l4 -12h8q23 0 112 80h8q20 0 40 -80q-148 -84 -220 -84q-66 0 -104 52q-102 -52 -212 -52q-199 0 -244 196l-4 56q0 203 168 384q115 104 236 104z" />
    <glyph glyph-name="atilde" unicode="&#xe3;" horiz-adv-x="844" 
d="M466 1276l160 -36l20 -4q44 0 88 28q9 0 12 -36q0 -76 -24 -76l-72 -12h-20q-25 0 -148 32l-24 4q-37 0 -88 -24l-8 12v60q0 44 60 44zM434 1064q120 -16 120 -44v-16q0 -6 -64 -32q-162 -88 -244 -348q-12 -47 -12 -100q0 -90 76 -104h8q122 0 200 400q60 196 80 196
q52 40 112 40h16q71 0 88 -48q-172 -473 -172 -580l4 -20h8q23 0 116 84q44 -38 44 -84q-148 -84 -220 -84q-65 0 -104 52q-98 -52 -216 -52q-198 0 -240 204l-4 56q0 197 180 388q113 92 224 92z" />
    <glyph glyph-name="aring" unicode="&#xe5;" horiz-adv-x="840" 
d="M586 1292q132 -17 132 -76v-16q0 -59 -136 -96l-40 -4h-20q-132 12 -132 84q0 60 128 100zM502 1188q0 -44 44 -44h4q60 0 60 68q-13 36 -44 36q-64 -9 -64 -60zM430 1064q124 -15 124 -52q0 -14 -96 -56q-228 -200 -228 -428q0 -94 76 -108h8q87 0 152 204
q52 221 112 380q63 52 128 52h16q61 0 88 -40v-8q-172 -477 -172 -580l4 -20h8q26 0 116 84q24 0 44 -84q-145 -84 -224 -84q-59 0 -96 52q-107 -52 -220 -52q-176 0 -232 168l-8 60v40q0 227 216 412q100 60 184 60z" />
    <glyph glyph-name="ccedilla" unicode="&#xe7;" horiz-adv-x="756" 
d="M466 1064q180 0 252 -160l8 -24q-88 -108 -128 -108q-68 14 -68 56v8l36 132q-8 25 -20 28q-101 -26 -212 -168q-104 -163 -104 -304q12 -104 72 -104h8q53 0 116 88q44 32 108 32q76 -13 76 -32v-4q0 -42 -128 -136q-98 -44 -184 -44l-4 -12q0 -13 56 -52l8 -28v-12
q-36 -104 -196 -104q-107 0 -132 80v8q0 12 44 12h32q40 0 40 -40q22 -16 44 -16q40 0 60 52q0 15 -40 64l-4 12l16 36v4q-100 0 -172 128q-20 52 -20 104v40q0 215 216 404q92 60 220 60z" />
    <glyph glyph-name="eacute" unicode="&#xe9;" horiz-adv-x="732" 
d="M518 1300h48q31 0 36 -16q-64 -89 -88 -172q-19 -12 -52 -12h-24q-56 0 -56 24q27 49 72 164q26 12 64 12zM482 1068h24q135 0 196 -180q0 -197 -384 -396l-60 -24q12 -52 44 -52h24q54 0 136 100q54 24 100 24q76 -13 76 -32v-12q-214 -180 -348 -180h-36
q-161 0 -216 180q-8 17 -8 64v16q0 208 208 400q116 92 244 92zM246 584v-8h4q252 140 252 280q0 92 -60 108h-12q-62 0 -144 -184q-40 -115 -40 -196z" />
    <glyph glyph-name="egrave" unicode="&#xe8;" horiz-adv-x="732" 
d="M354 1300h48q80 0 80 -56l56 -128q-18 -16 -56 -16h-24q-64 0 -64 52l-76 136q15 12 36 12zM478 1068h28q138 0 196 -176v-8q0 -202 -404 -400l-40 -16q17 -52 48 -52h24q49 0 136 100q21 16 96 24q72 -8 80 -40q0 -17 -148 -112q-120 -72 -212 -72h-32q-119 0 -196 132
q-24 61 -24 120q0 235 244 436q112 64 204 64zM250 576q252 135 252 284q0 90 -56 104h-12q-83 0 -172 -264q-12 -50 -12 -124z" />
    <glyph glyph-name="ecircumflex" unicode="&#xea;" horiz-adv-x="732" 
d="M470 1300h68q40 0 40 -48q0 -53 20 -136q-26 -16 -60 -16h-24q-52 0 -52 28v20q-25 -44 -52 -44l-32 -4h-28q-44 6 -44 20q43 51 120 172q16 8 44 8zM482 1068h32q57 0 124 -60q53 -63 64 -128q0 -158 -300 -344q-132 -68 -144 -68q12 -52 44 -52h24q54 0 136 100
q51 24 100 24q76 -13 76 -32v-12q-214 -180 -348 -180h-36q-159 0 -216 176l-8 68v12q0 216 208 404q113 92 244 92zM246 584v-8h4q252 141 252 280q-13 108 -60 108h-12q-68 0 -148 -200q-36 -97 -36 -180z" />
    <glyph glyph-name="edieresis" unicode="&#xeb;" horiz-adv-x="732" 
d="M566 1260q60 -11 60 -48v-24q-28 -48 -72 -48h-4q-64 10 -64 60q22 60 80 60zM358 1248h20q41 0 52 -56q0 -42 -64 -60h-20q-44 0 -56 48v4q0 52 68 64zM478 1068h28q139 0 196 -180v-8q0 -179 -352 -372q-79 -40 -92 -40q15 -52 48 -52h24q49 0 136 100q19 16 96 24
q52 0 76 -32v-16q-213 -176 -356 -176h-32q-115 0 -196 128q-24 69 -24 124q0 225 228 424q115 76 220 76zM250 576q252 137 252 280q0 80 -48 108h-20q-84 0 -172 -264q-16 -85 -16 -124h4z" />
    <glyph glyph-name="iacute" unicode="&#xed;" horiz-adv-x="600" 
d="M490 1300h48q30 0 32 -12v-4q-98 -106 -132 -172q-19 -12 -60 -12h-28q-44 6 -44 20q50 58 116 168q37 12 68 12zM350 1068q84 -11 84 -60q-172 -459 -172 -580v-12l8 -8q26 0 112 80h8q20 0 44 -80q-148 -84 -236 -84h-52q-99 0 -116 60q0 121 172 596q35 80 56 80z" />
    <glyph glyph-name="igrave" unicode="&#xec;" horiz-adv-x="464" 
d="M218 1300h48q80 0 80 -56l56 -128q-18 -16 -56 -16h-24q-64 0 -64 52l-76 136q15 12 36 12zM350 1068q70 0 84 -56q-172 -481 -172 -592l4 -12h8q23 0 112 80h8q20 0 40 -80q-142 -84 -236 -84h-48q-88 0 -120 52q0 114 168 592q40 92 60 92z" />
    <glyph glyph-name="icircumflex" unicode="&#xee;" horiz-adv-x="528" 
d="M358 1300h76q31 0 40 -20v-4q0 -86 24 -156q-21 -20 -64 -20h-24q-52 0 -52 36v8q-22 -44 -76 -44h-24q-52 0 -52 20q70 94 116 172zM350 1068q84 -13 84 -60q-172 -460 -172 -572v-20l8 -8q27 0 116 84q23 0 48 -84q-150 -84 -236 -84h-52q-99 0 -116 60q0 123 176 608
q33 68 52 68z" />
    <glyph glyph-name="idieresis" unicode="&#xef;" horiz-adv-x="576" 
d="M490 1260q56 -13 56 -52v-8q0 -51 -84 -60q-50 0 -56 64q22 56 84 56zM278 1248h12q56 -6 56 -44v-16q0 -40 -60 -56h-20q-56 6 -56 44v16q0 43 68 56zM350 1068q70 0 84 -56q-172 -482 -172 -588l4 -16h8q21 0 112 80h8q20 0 40 -80q-142 -84 -236 -84h-48
q-120 12 -120 56q0 110 168 588q40 92 60 92z" />
    <glyph glyph-name="ntilde" unicode="&#xf1;" horiz-adv-x="936" 
d="M498 1276q64 -8 156 -36l24 -4q49 6 92 24h4l4 -20v-16q0 -72 -28 -72q-32 -12 -68 -12h-20q-22 0 -164 36h-12q-29 0 -84 -24l-8 24v28q0 56 24 56zM734 1064q172 -12 172 -80q-188 -509 -188 -652q-29 -16 -64 -16h-32q-105 0 -152 52q163 414 172 572v24q0 10 -32 16
q-193 0 -308 -496l-28 -156l-60 -12h-32q-106 0 -152 52v8q172 468 172 572l-12 20q-20 0 -112 -84h-8q-40 35 -40 84q213 88 336 88h28q34 0 76 -36q115 44 264 44z" />
    <glyph glyph-name="oacute" unicode="&#xf3;" horiz-adv-x="736" 
d="M554 1300h40q48 0 48 -16q-54 -69 -92 -172q0 -12 -56 -12h-16q-60 4 -60 20q32 52 72 168q26 12 64 12zM474 1064h4q156 0 216 -184l12 -72q0 -256 -244 -436q-100 -60 -180 -60h-32q-149 0 -212 180l-8 72v28q0 198 192 376q115 96 252 96zM226 504q0 -108 52 -108h4
q105 0 196 304q28 98 28 172q0 108 -56 108q-110 0 -204 -336q-20 -84 -20 -140z" />
    <glyph glyph-name="ograve" unicode="&#xf2;" horiz-adv-x="736" 
d="M350 1300h48q76 0 76 -40l60 -144q-18 -16 -56 -16h-24q-64 0 -64 52q-22 50 -76 136q15 12 36 12zM478 1064q165 0 220 -192l8 -56v-28q0 -226 -228 -408q-102 -68 -204 -68h-28q-139 0 -204 180l-12 84q0 238 236 424q100 64 212 64zM230 500q0 -104 52 -104h4
q104 0 196 308q20 57 28 172q0 104 -64 104q-87 0 -188 -292q-28 -113 -28 -188z" />
    <glyph glyph-name="ocircumflex" unicode="&#xf4;" horiz-adv-x="736" 
d="M502 1300h64q40 -3 40 -24q0 -75 24 -160q-29 -16 -64 -16h-20q-56 0 -56 36v8q-22 -44 -76 -44h-24q-52 0 -52 20q50 63 116 172zM478 1064q153 0 216 -176q12 -46 12 -96q0 -237 -244 -424q-100 -56 -188 -56h-28q-138 0 -200 168q-16 41 -16 96q0 248 244 428
q93 60 204 60zM230 508v-36q0 -65 48 -76h8q117 0 216 388l4 80v32q0 84 -52 84q-123 0 -220 -392z" />
    <glyph glyph-name="odieresis" unicode="&#xf6;" horiz-adv-x="736" 
d="M610 1260q64 -14 64 -52q0 -54 -76 -68h-4q-60 9 -60 48v24q27 48 76 48zM402 1248h20q52 -13 52 -52q-16 -64 -64 -64h-24q-52 14 -52 48v8q0 45 68 60zM478 1064q154 0 216 -180q12 -53 12 -100q0 -204 -216 -396q-115 -76 -216 -76h-24q-153 0 -212 188l-8 72v4
q0 253 244 428q90 60 204 60zM226 496q8 -100 48 -100h16q94 0 192 308q24 93 24 168v12q0 96 -52 96q-117 0 -208 -344q-12 -34 -20 -140z" />
    <glyph glyph-name="otilde" unicode="&#xf5;" horiz-adv-x="744" 
d="M434 1276l160 -36l20 -4q44 0 88 28q9 0 12 -36q0 -76 -24 -76l-72 -12h-20q-25 0 -148 32l-24 4q-37 0 -88 -24l-8 12v60q0 44 60 44zM474 1064h4q156 0 216 -184l12 -72q0 -256 -244 -436q-100 -60 -180 -60h-32q-151 0 -212 184l-8 68v28q0 198 192 376q115 96 252 96
zM226 504q0 -108 52 -108h4q105 0 196 304q28 98 28 172q0 108 -56 108q-110 0 -204 -336q-20 -84 -20 -140z" />
    <glyph glyph-name="uacute" unicode="&#xfa;" horiz-adv-x="920" 
d="M658 1300h48l36 -8v-12q-54 -69 -88 -168q-19 -12 -52 -12h-20q-60 4 -60 20q36 66 72 168q26 12 64 12zM362 1052q48 0 84 -44l-104 -312q-48 -129 -48 -208q10 -76 68 -76h16q135 0 216 408q57 192 84 192q43 40 120 40q70 0 92 -52q-172 -461 -172 -564v-16
q1 -20 8 -20q23 0 116 84h4q30 -18 44 -84q-160 -84 -228 -84q-73 0 -104 76q-118 -76 -220 -76h-32q-152 0 -208 156l-8 68q0 70 108 396v16h-8v4q-21 -2 -112 -76h-8q-35 35 -40 72q185 100 332 100z" />
    <glyph glyph-name="ugrave" unicode="&#xf9;" horiz-adv-x="916" 
d="M458 1300h44q76 0 76 -64l52 -120q0 -12 -56 -16h-24q-64 0 -64 56q-38 78 -76 128q0 16 48 16zM358 1052q54 0 88 -44v-4q-152 -413 -152 -516q9 -76 68 -76h16q134 0 212 396q60 185 72 196q61 48 136 48q53 0 88 -40v-8l-136 -412q-32 -113 -32 -152v-32q0 -8 12 -8
q17 0 112 84h4q40 -31 40 -88q-163 -80 -224 -80q-73 0 -104 76q-118 -76 -220 -76h-40q-139 0 -200 152l-8 68v4q0 73 104 384l4 28h-4l-4 4q-18 0 -112 -76h-8q-37 37 -40 72q186 100 328 100z" />
    <glyph glyph-name="ucircumflex" unicode="&#xfb;" horiz-adv-x="916" 
d="M598 1300h76q40 0 40 -48q1 -60 24 -132q-21 -20 -64 -20h-24q-52 0 -52 36v12h-4q-15 -44 -44 -44l-36 -4h-16q-52 3 -52 16v8q47 55 116 168zM358 1052q88 -17 88 -48q-152 -414 -152 -508q0 -84 68 -84h16q135 0 220 424q55 180 80 180q52 36 120 36q88 -11 88 -52
q-172 -479 -172 -576q3 -24 16 -24q20 4 112 84q44 -28 44 -84q-149 -80 -208 -80h-32q-60 0 -88 72q-119 -76 -220 -76h-40q-208 33 -208 208v20q0 68 108 396l-4 12l-4 4q-29 -5 -112 -76h-4q-44 34 -44 76q197 96 328 96z" />
    <glyph glyph-name="udieresis" unicode="&#xfc;" horiz-adv-x="916" 
d="M670 1260q55 0 64 -56v-8q-23 -56 -76 -56h-4q-60 9 -60 48v12q0 46 76 60zM458 1248h24q52 -14 52 -48v-12q0 -41 -68 -56h-20q-41 0 -52 56q0 42 64 60zM362 1052q84 -19 84 -48q-152 -411 -152 -504v-16q8 -72 64 -72h8q148 0 220 384q65 224 96 224q55 32 116 32
q88 -13 88 -52q-172 -474 -172 -580q4 -20 16 -20q22 6 112 84q44 -30 44 -84q-146 -80 -216 -80h-24q-61 0 -88 72h-4q-115 -76 -208 -76h-44q-153 0 -208 164l-4 40v36q0 53 104 372l4 20l-8 8q-17 0 -116 -76q-44 27 -44 76q196 96 332 96z" />
    <glyph glyph-name="dagger" unicode="&#x2020;" 
 />
    <glyph glyph-name="degree" unicode="&#xb0;" horiz-adv-x="819" 
 />
    <glyph glyph-name="cent" unicode="&#xa2;" 
 />
    <glyph glyph-name="sterling" unicode="&#xa3;" 
 />
    <glyph glyph-name="section" unicode="&#xa7;" 
 />
    <glyph glyph-name="bullet" unicode="&#x2022;" horiz-adv-x="717" 
 />
    <glyph glyph-name="paragraph" unicode="&#xb6;" horiz-adv-x="1100" 
 />
    <glyph glyph-name="germandbls" unicode="&#xdf;" horiz-adv-x="1251" 
 />
    <glyph glyph-name="registered" unicode="&#xae;" horiz-adv-x="1509" 
 />
    <glyph glyph-name="copyright" unicode="&#xa9;" horiz-adv-x="1509" 
 />
    <glyph glyph-name="trademark" unicode="&#x2122;" horiz-adv-x="2048" 
 />
    <glyph glyph-name="acute" unicode="&#xb4;" horiz-adv-x="682" 
 />
    <glyph glyph-name="dieresis" unicode="&#xa8;" horiz-adv-x="682" 
 />
    <glyph glyph-name="notequal" unicode="&#x2260;" horiz-adv-x="1124" 
 />
    <glyph glyph-name="AE" unicode="&#xc6;" horiz-adv-x="1400" 
d="M678 1544q198 0 240 -120h4q136 120 264 120q131 0 176 -108l8 -48q-31 -164 -160 -164h-16q-74 0 -148 60v4h8q156 16 156 116v12q0 40 -32 56q-122 0 -176 -220l-4 -60v-4q0 -93 52 -152q-109 -59 -168 -184q-72 -147 -72 -292q7 -111 40 -120h4q36 0 104 60l68 8h64
q67 0 80 -24v-16q-110 -144 -296 -144q-193 0 -256 152q-20 62 -20 124v12q0 131 92 384h-4l-88 8h-36l-112 -8q-144 -396 -144 -472q-15 -54 -32 -188q-45 -12 -88 -12q-142 13 -156 60q231 770 392 1004l44 52v4l-8 8h-20q-50 0 -140 -88q-44 39 -44 84q116 52 304 84z
M502 1104h4l132 -8q100 0 100 36q44 144 44 232q0 92 -24 108h-12q-81 -68 -172 -220z" />
    <glyph glyph-name="Oslash" unicode="&#xd8;" horiz-adv-x="804" 
d="M606 1564l20 -4l-8 -32q156 -92 156 -340v-56q0 -265 -184 -572q-127 -182 -260 -224q-82 -32 -104 -32h-36l-12 8l12 28q-151 69 -160 364q0 343 236 672q124 132 192 148q11 10 40 12q20 28 108 28zM586 1428q-192 -686 -260 -972v-4h4q101 160 196 484q68 268 68 392
v32l4 4l-4 4v40l-4 20h-4zM474 1412q-84 -133 -176 -420q-88 -313 -88 -484l4 -68h8l256 968v4h-4z" />
    <glyph glyph-name="infinity" unicode="&#x221e;" horiz-adv-x="1460" 
 />
    <glyph glyph-name="plusminus" unicode="&#xb1;" horiz-adv-x="1124" 
 />
    <glyph glyph-name="lessequal" unicode="&#x2264;" horiz-adv-x="1124" 
 />
    <glyph glyph-name="greaterequal" unicode="&#x2265;" horiz-adv-x="1124" 
 />
    <glyph glyph-name="yen" unicode="&#xa5;" 
 />
    <glyph glyph-name="mu" unicode="&#xb5;" horiz-adv-x="1180" 
 />
    <glyph glyph-name="partialdiff" unicode="&#x2202;" horiz-adv-x="1012" 
 />
    <glyph glyph-name="summation" unicode="&#x2211;" horiz-adv-x="1460" 
 />
    <glyph glyph-name="product" unicode="&#x220f;" horiz-adv-x="1686" 
 />
    <glyph glyph-name="glyph155" horiz-adv-x="1124" 
 />
    <glyph glyph-name="integral" unicode="&#x222b;" horiz-adv-x="561" 
 />
    <glyph glyph-name="ordfeminine" unicode="&#xaa;" horiz-adv-x="758" 
 />
    <glyph glyph-name="ordmasculine" unicode="&#xba;" horiz-adv-x="748" 
 />
    <glyph glyph-name="Omega" unicode="&#x2126;" horiz-adv-x="1573" 
 />
    <glyph glyph-name="ae" unicode="&#xe6;" horiz-adv-x="1172" 
d="M918 1068h28q141 0 196 -184q0 -169 -296 -344q-93 -55 -148 -72q14 -52 44 -52h16q64 0 148 100q18 16 96 24q52 0 76 -32v-12q-149 -132 -288 -172l-60 -8h-40q-84 0 -160 76v4h-4q-117 -72 -248 -72q-175 0 -232 152l-16 100q0 203 168 384q115 104 236 104
q120 -16 120 -44v-16q0 -6 -64 -32q-162 -88 -244 -348q-12 -42 -12 -100q0 -90 76 -104h8q122 0 208 424q51 176 80 176q43 36 104 36h16q34 0 60 -16q67 28 132 28zM686 576h4q252 139 252 280q0 93 -60 108h-4q-103 0 -188 -324z" />
    <glyph glyph-name="oslash" unicode="&#xf8;" horiz-adv-x="732" 
d="M526 1108l8 -8l-12 -40q95 -31 132 -92q48 -75 48 -140v-44q0 -232 -244 -416q-57 -32 -140 -56q0 -44 -68 -44l-28 -4q-24 5 -24 12l16 40q-79 0 -156 124q-28 59 -28 124v28q0 212 212 392q97 67 168 76q0 48 60 48h56zM486 956l-140 -524q86 77 148 324l12 116
q-5 80 -20 84zM226 504q0 -42 16 -88h4l136 524q-112 -129 -152 -372z" />
    <glyph glyph-name="questiondown" unicode="&#xbf;" horiz-adv-x="1251" 
 />
    <glyph glyph-name="exclamdown" unicode="&#xa1;" horiz-adv-x="682" 
 />
    <glyph glyph-name="logicalnot" unicode="&#xac;" horiz-adv-x="1196" 
 />
    <glyph glyph-name="radical" unicode="&#x221a;" horiz-adv-x="1124" 
 />
    <glyph glyph-name="florin" unicode="&#x192;" 
 />
    <glyph glyph-name="approxequal" unicode="&#x2248;" horiz-adv-x="1124" 
 />
    <glyph glyph-name="Delta" unicode="&#x2206;" horiz-adv-x="1253" 
 />
    <glyph glyph-name="guillemotleft" unicode="&#xab;" 
 />
    <glyph glyph-name="guillemotright" unicode="&#xbb;" 
 />
    <glyph glyph-name="ellipsis" unicode="&#x2026;" horiz-adv-x="2048" 
 />
    <glyph glyph-name="Agrave" unicode="&#xc0;" horiz-adv-x="980" 
d="M698 1792h16q96 0 96 -52l56 -136q-18 -12 -68 -16q-76 0 -76 52q-22 58 -76 132v4q0 13 52 16zM678 1544q191 0 244 -120q28 -73 28 -156q0 -204 -184 -756l-12 -84l4 -12h8q25 0 112 80h8q20 0 40 -80q-199 -92 -352 -92q-88 7 -88 56q36 126 204 616h-4l-80 8h-44
l-112 -8q-156 -432 -156 -536l-20 -124q-45 -12 -88 -12q-146 14 -156 60q213 702 356 948l80 108v4l-8 8h-20q-49 0 -140 -88q-44 40 -44 84q83 44 332 88zM502 1104h4l132 -8q96 0 96 28q48 145 48 228v24q-4 93 -24 96q-58 0 -224 -296z" />
    <glyph glyph-name="Atilde" unicode="&#xc3;" horiz-adv-x="980" 
d="M638 1764h16q23 0 164 -36h16q33 0 84 24l8 -12v-28q0 -64 -16 -64q-17 -12 -84 -20q-37 0 -164 36h-32q-43 0 -76 -24q-12 3 -12 32v20q0 60 32 60q26 12 64 12zM678 1544q193 0 244 -120q28 -66 28 -156q0 -205 -176 -732q-20 -75 -20 -100l4 -20h8q26 0 116 84
q44 -38 44 -84q-199 -92 -352 -92q-84 7 -84 56q27 114 200 616h-4l-80 8h-44q-116 0 -116 -24q-96 -246 -148 -476q-18 -168 -28 -168q-37 -12 -84 -12q-146 14 -156 60q207 680 356 948l80 108v8l-4 4h-24q-45 0 -140 -88q-19 0 -44 84q83 44 332 88zM502 1104h4l132 -8
q96 0 96 28q48 141 48 224v40q-5 84 -24 84q-57 0 -224 -296z" />
    <glyph glyph-name="Otilde" unicode="&#xd5;" horiz-adv-x="828" 
d="M510 1764h16q23 0 164 -36h16q33 0 84 24l8 -24v-8q0 -76 -20 -76l-84 -16q-27 0 -164 36h-40q-27 0 -64 -24q-12 4 -12 24v36q0 56 44 56q18 8 52 8zM546 1544q160 0 216 -252q12 -64 12 -128q0 -334 -220 -652q-154 -188 -296 -188q-138 0 -204 192q-24 81 -24 172v36
q0 334 244 664q145 156 272 156zM210 536v-44q6 -104 32 -104h8q98 0 264 512q80 295 80 460q0 120 -44 120q-78 0 -216 -376q-124 -374 -124 -568z" />
    <glyph glyph-name="OE" unicode="&#x152;" horiz-adv-x="1248" 
d="M546 1544q121 0 188 -156h4q146 156 296 156q117 0 168 -88q16 -28 16 -72q0 -112 -136 -160h-44q-57 0 -144 56v8h8q156 16 156 112v20q0 39 -32 52q-126 0 -176 -232l-4 -52q0 -85 52 -152l-4 -4q-124 -62 -200 -264q-32 -105 -32 -192v-28q0 -89 36 -108h4
q35 0 108 60q20 8 72 8h56q84 0 84 -32q-106 -152 -296 -152q-164 0 -236 108v4h-4q-120 -112 -228 -112q-177 0 -224 292l-4 72v28q0 355 252 680q139 148 264 148zM210 532v-44q0 -83 32 -100h8q80 0 212 360q132 381 132 608q0 124 -44 124q-88 0 -252 -476
q-88 -323 -88 -472z" />
    <glyph glyph-name="oe" unicode="&#x153;" horiz-adv-x="1160" 
d="M906 1068h28q140 0 196 -176v-16q0 -199 -440 -412q11 -48 44 -48h24q50 0 136 100q34 20 80 20h36q60 -8 60 -36q-37 -46 -136 -104q-129 -80 -212 -80h-36q-95 0 -180 88q-120 -92 -224 -92h-40q-142 0 -204 184l-8 56v40q0 200 192 376q114 96 252 96h4q99 0 180 -96
q124 100 248 100zM226 504q0 -108 52 -108h4q108 0 200 320q24 90 24 156q0 108 -64 108q-79 0 -176 -256q-40 -140 -40 -220zM674 576h4q252 141 252 264v24q0 86 -56 100h-12q-74 0 -160 -228q-20 -67 -28 -160z" />
    <glyph glyph-name="endash" unicode="&#x2013;" 
 />
    <glyph glyph-name="emdash" unicode="&#x2014;" horiz-adv-x="2048" 
 />
    <glyph glyph-name="quotedblleft" unicode="&#x201c;" horiz-adv-x="682" 
 />
    <glyph glyph-name="quotedblright" unicode="&#x201d;" horiz-adv-x="682" 
 />
    <glyph glyph-name="quoteleft" unicode="&#x2018;" horiz-adv-x="455" 
 />
    <glyph glyph-name="quoteright" unicode="&#x2019;" horiz-adv-x="455" 
 />
    <glyph glyph-name="divide" unicode="&#xf7;" horiz-adv-x="1124" 
 />
    <glyph glyph-name="lozenge" unicode="&#x25ca;" horiz-adv-x="1012" 
 />
    <glyph glyph-name="ydieresis" unicode="&#xff;" horiz-adv-x="1024" 
 />
    <glyph glyph-name="Ydieresis" unicode="&#x178;" horiz-adv-x="1366" 
 />
    <glyph glyph-name="fraction" unicode="&#x2044;" horiz-adv-x="342" 
 />
    <glyph glyph-name="fraction" unicode="&#x2215;" horiz-adv-x="342" 
 />
    <glyph glyph-name="Euro" unicode="&#x20ac;" 
 />
    <glyph glyph-name="guilsinglleft" unicode="&#x2039;" horiz-adv-x="682" 
 />
    <glyph glyph-name="guilsinglright" unicode="&#x203a;" horiz-adv-x="682" 
 />
    <glyph glyph-name="uniF001" unicode="&#xf001;" horiz-adv-x="1024" 
 />
    <glyph glyph-name="uniF001" unicode="&#xfb01;" horiz-adv-x="1024" 
 />
    <glyph glyph-name="uniF002" unicode="&#xf002;" horiz-adv-x="1024" 
 />
    <glyph glyph-name="uniF002" unicode="&#xfb02;" horiz-adv-x="1024" 
 />
    <glyph glyph-name="daggerdbl" unicode="&#x2021;" 
 />
    <glyph glyph-name="periodcentered" unicode="&#xb7;" horiz-adv-x="569" 
 />
    <glyph glyph-name="periodcentered" unicode="&#x2219;" horiz-adv-x="569" 
 />
    <glyph glyph-name="quotesinglbase" unicode="&#x201a;" horiz-adv-x="455" 
 />
    <glyph glyph-name="quotedblbase" unicode="&#x201e;" horiz-adv-x="682" 
 />
    <glyph glyph-name="perthousand" unicode="&#x2030;" horiz-adv-x="2048" 
 />
    <glyph glyph-name="Acircumflex" unicode="&#xc2;" horiz-adv-x="980" 
d="M834 1792h40q52 0 52 -36q0 -48 24 -148q-26 -20 -76 -20q-60 0 -60 32q0 12 -8 12q-14 -44 -84 -44q-64 5 -64 20v4q50 58 116 168q19 12 60 12zM682 1544q268 0 268 -276q0 -191 -180 -740q-16 -57 -16 -88v-16l8 -8h4q21 0 112 80h4q22 0 44 -80q-204 -92 -352 -92
q-88 0 -88 56q0 28 204 616l-92 8h-36l-112 -8q-166 -441 -176 -656q-33 -16 -88 -16q-156 16 -156 64q228 759 388 996q48 49 48 64h-4l-16 4h-8q-51 0 -140 -88q-44 36 -44 84q69 40 308 84zM502 1104l128 -8q100 0 100 24q52 145 52 240q-6 112 -24 112h-4
q-44 -11 -132 -144q-87 -136 -120 -224z" />
    <glyph glyph-name="Ecircumflex" unicode="&#xca;" horiz-adv-x="832" 
d="M678 1792h56q44 -6 44 -20v-4q0 -83 24 -160q-26 -20 -76 -20q-64 0 -64 44v4h-4q-14 -44 -52 -44l-36 -4q-60 5 -60 20v4l120 172zM622 1544q180 -19 180 -148v-12q0 -108 -124 -156l-32 -4h-16q-65 0 -152 56v8q113 0 152 68q16 33 16 60q0 47 -36 52h-12
q-106 0 -164 -224l-4 -52q0 -87 52 -152v-4q-135 -72 -208 -288q-28 -96 -28 -180v-8q0 -120 48 -120q28 0 100 60q20 8 72 8h64q76 -7 76 -24v-12q-109 -148 -296 -148q-200 0 -260 160q-16 52 -20 128q0 237 172 396l64 28q-32 59 -32 112v28q0 117 120 244
q133 124 268 124z" />
    <glyph glyph-name="Aacute" unicode="&#xc1;" horiz-adv-x="1020" 
d="M934 1792h8q48 0 48 -16v-4q-89 -91 -136 -172l-64 -12q-64 7 -64 20q53 66 116 172q40 12 92 12zM682 1544q268 0 268 -272q0 -200 -180 -744q-16 -57 -16 -88v-16l8 -8h4q21 0 112 80h4q23 0 44 -80q-203 -92 -352 -92q-88 9 -88 52q40 151 204 620h-4l-88 8h-36
l-112 -8q-156 -425 -156 -528l-20 -128q-33 -16 -88 -16q-156 16 -156 64q236 779 388 996l48 56v8l-20 4h-8q-51 0 -140 -88q-44 38 -44 84q69 40 308 84zM502 1104h4l124 -8q100 0 100 24q52 145 52 240q-6 112 -24 112h-4q-44 -11 -132 -144q-92 -147 -120 -224z" />
    <glyph glyph-name="Edieresis" unicode="&#xcb;" horiz-adv-x="860" 
d="M754 1748h20q56 -5 56 -48v-12q0 -43 -68 -56h-12q-60 7 -60 56q21 60 64 60zM578 1740q56 -12 56 -56q0 -50 -80 -64q-60 11 -60 48v12q0 53 84 60zM618 1544q122 0 176 -100l8 -52q0 -118 -128 -164l-20 -4h-32q-68 0 -144 60v4h8q121 0 156 100v24q0 49 -32 60
q-123 0 -176 -224l-4 -56v-12q0 -77 52 -144q-111 -64 -168 -184q-72 -151 -72 -288q9 -124 40 -124h4q38 0 104 60l68 8h64q69 0 84 -28q-44 -87 -172 -136q-56 -20 -132 -20q-183 0 -248 144q-24 63 -24 144q0 246 172 396l60 32q-27 51 -32 120q0 204 244 348
q88 36 144 36z" />
    <glyph glyph-name="Egrave" unicode="&#xc8;" horiz-adv-x="828" 
d="M518 1792h16q92 0 92 -44l60 -144q-18 -12 -68 -16q-76 0 -76 52q-21 54 -76 132v4q0 13 52 16zM618 1544q129 0 176 -108l4 -36v-20q0 -116 -140 -156h-32q-74 0 -148 60v4h8q123 0 156 104v20q0 56 -36 56h-12q-105 0 -160 -216l-4 -56v-20q0 -80 52 -140
q-143 -76 -212 -288q-28 -105 -28 -196q0 -90 40 -112h4q35 0 104 60q20 8 72 8h60q67 0 80 -24v-12q-106 -148 -296 -148t-256 148q-20 65 -20 124v36q0 210 160 368l72 40q-32 55 -32 124q0 197 236 340q50 30 152 40z" />
    <glyph glyph-name="Iacute" unicode="&#xcd;" horiz-adv-x="684" 
d="M590 1792h16q48 0 48 -16v-4q-97 -100 -136 -172l-64 -12q-64 5 -64 20v4q67 83 116 168q42 12 84 12zM522 1544h12q92 0 92 -56q-229 -617 -328 -1036v-36l8 -8q27 0 116 84q26 0 48 -84q-150 -84 -244 -84h-24q-130 0 -172 60q316 921 316 1052v12l-8 8
q-29 -9 -112 -84h-4q-21 0 -44 80q208 92 344 92z" />
    <glyph glyph-name="Icircumflex" unicode="&#xce;" horiz-adv-x="676" 
d="M522 1792h56q41 0 44 -24q0 -76 24 -160q-26 -20 -76 -20q-64 0 -64 44v4h-4q0 -41 -80 -48h-8q-60 5 -60 20v4q49 57 112 164q18 16 56 16zM530 1544h8q84 0 84 -52l-216 -636q-76 -243 -112 -412q5 -36 12 -36q23 0 116 84q44 -33 44 -80v-8q-157 -80 -232 -80h-32
q-172 14 -172 60q316 923 316 1068l-4 4h-4q-20 0 -112 -84h-4q-44 35 -44 84q217 88 352 88z" />
    <glyph glyph-name="Idieresis" unicode="&#xcf;" horiz-adv-x="676" 
d="M570 1748h20q56 -6 56 -44v-16q0 -43 -68 -56h-12q-56 6 -56 44v16q0 40 60 56zM394 1740q56 -13 56 -52v-4q-14 -64 -84 -64q-56 13 -56 52v8q0 51 84 60zM530 1544h8q84 -6 84 -56q-224 -623 -316 -984q-12 -44 -12 -76q0 -20 16 -20q20 4 112 84q24 0 44 -84
q-148 -84 -232 -84h-40q-127 0 -164 60q316 939 316 1056l-8 16q-18 0 -116 -84h-4q-21 0 -40 80q91 49 272 88z" />
    <glyph glyph-name="Igrave" unicode="&#xcc;" horiz-adv-x="652" 
d="M402 1792h12q96 0 96 -44q26 -80 60 -136q0 -19 -68 -24q-76 0 -76 48q-31 74 -80 140q18 16 56 16zM518 1544h20q71 0 84 -52q-224 -624 -316 -984l-12 -64v-16l4 -20h4q23 0 120 84h4q34 -37 40 -84q-149 -84 -244 -84h-24q-168 12 -168 64q312 922 312 1044v16l-8 8
q-20 -4 -112 -84h-4q-28 15 -44 80q209 92 344 92z" />
    <glyph glyph-name="Oacute" unicode="&#xd3;" horiz-adv-x="824" 
d="M730 1792h24q40 -5 40 -16q-96 -104 -136 -176l-68 -12q-60 5 -60 20v4q45 53 116 168q42 12 84 12zM542 1544q196 0 232 -336v-44q0 -375 -256 -696q-136 -144 -260 -144q-162 0 -216 252q-7 0 -12 128q0 310 192 612q167 228 320 228zM210 520v-4q0 -128 44 -128
q78 0 220 384q120 373 120 568v28q0 112 -44 112q-81 0 -232 -424q-108 -348 -108 -536z" />
    <glyph glyph-name="Ocircumflex" unicode="&#xd4;" horiz-adv-x="804" 
d="M602 1792h56q41 0 44 -24q0 -75 24 -160q-26 -20 -76 -20q-64 0 -64 44v4h-4q0 -41 -80 -48h-8q-60 5 -60 20v4q49 57 112 164q18 16 56 16zM542 1544q196 0 232 -336v-44q0 -374 -256 -696q-136 -144 -260 -144q-162 0 -216 252q-7 0 -12 128q0 310 192 612
q167 228 320 228zM210 520v-4q0 -128 44 -128q80 11 204 344q136 392 136 604v32q0 112 -44 112q-81 0 -232 -424q-108 -348 -108 -536z" />
    <glyph glyph-name="Ograve" unicode="&#xd2;" horiz-adv-x="804" 
d="M454 1792h16q92 0 92 -40l60 -144q0 -13 -64 -20q-76 0 -76 44q-30 76 -80 140v8q26 12 52 12zM550 1544q151 0 212 -236l12 -104v-72q0 -300 -216 -616q-152 -192 -300 -192q-161 0 -216 256l-12 120q0 380 268 712q135 132 252 132zM210 508q0 -120 44 -120
q90 0 256 488q88 326 88 488q-7 109 -36 116q-120 0 -292 -592q-60 -246 -60 -380z" />
    <glyph glyph-name="Uacute" unicode="&#xda;" horiz-adv-x="1020" 
d="M566 1792h24q88 0 88 -56l56 -132q-18 -12 -68 -16q-76 0 -76 52q-21 54 -76 132v4q0 13 52 16zM470 1544q92 -12 92 -64l-284 -880q-24 -96 -24 -140q0 -57 48 -64h16q114 0 224 400q204 600 204 724l64 12h24q108 0 156 -52v-8q-312 -914 -312 -1044l4 -12h16
q41 25 100 80h8q40 -31 40 -84h-4q-205 -88 -344 -88q-33 0 -76 20q-76 -20 -148 -20q-171 0 -224 96q-20 41 -20 76v8q0 46 140 456q120 387 120 468l-4 16q-26 0 -116 -84h-4q-24 0 -44 84q228 100 348 100z" />
    <glyph glyph-name="Ucircumflex" unicode="&#xdb;" horiz-adv-x="1024" 
d="M726 1792h56q41 0 44 -24q0 -82 24 -160q-26 -20 -76 -20q-64 0 -64 44v4h-4q-14 -44 -52 -44l-36 -4q-60 5 -60 20v4l120 172zM470 1544q79 0 92 -64l-240 -744q-48 -140 -68 -264q0 -69 48 -76h16q114 0 212 364q196 569 196 648l20 112l64 12h20q128 0 164 -60
q-312 -898 -312 -1028v-28h8q20 0 112 80h4q21 0 44 -80q-204 -92 -352 -92q-33 0 -76 20q-72 -20 -152 -20q-190 0 -232 128l-8 48q0 43 136 448q124 392 124 468v20l-8 8q-27 -7 -112 -84h-4q-22 0 -44 84q230 100 348 100z" />
    <glyph glyph-name="Ugrave" unicode="&#xd9;" horiz-adv-x="1020" 
d="M794 1792h24q40 -5 40 -16q-99 -107 -136 -176l-68 -12q-60 5 -60 20v4q53 65 116 168q42 12 84 12zM466 1544q92 -11 92 -60v-4q-15 -65 -240 -748q-64 -193 -64 -272q0 -64 52 -64q126 0 220 356q158 433 220 764q0 12 68 16h20q104 0 156 -52v-4q-229 -653 -312 -1020
v-40h8q23 0 112 80h8q20 0 40 -80q-201 -92 -352 -92q-34 0 -72 20q-82 -20 -156 -20q-193 0 -232 132l-4 32v28q0 28 140 456q120 373 120 460l-4 12q-25 0 -120 -84h-4q-40 34 -40 84q224 100 344 100z" />
    <glyph glyph-name="dotlessi" unicode="&#x131;" horiz-adv-x="1020" 
 />
    <glyph glyph-name="circumflex" unicode="&#x2c6;" horiz-adv-x="682" 
 />
    <glyph glyph-name="tilde" unicode="&#x2dc;" horiz-adv-x="682" 
 />
    <glyph glyph-name="uni02C9" unicode="&#x2c9;" horiz-adv-x="682" 
 />
    <glyph glyph-name="breve" unicode="&#x2d8;" horiz-adv-x="682" 
 />
    <glyph glyph-name="dotaccent" unicode="&#x2d9;" horiz-adv-x="682" 
 />
    <glyph glyph-name="ring" unicode="&#x2da;" horiz-adv-x="682" 
 />
    <glyph glyph-name="cedilla" unicode="&#xb8;" horiz-adv-x="682" 
 />
    <glyph glyph-name="hungarumlaut" unicode="&#x2dd;" horiz-adv-x="682" 
 />
    <glyph glyph-name="ogonek" unicode="&#x2db;" horiz-adv-x="682" 
 />
    <glyph glyph-name="caron" unicode="&#x2c7;" horiz-adv-x="682" 
 />
    <glyph glyph-name="Lslash" unicode="&#x141;" 
 />
    <glyph glyph-name="lslash" unicode="&#x142;" horiz-adv-x="455" 
 />
    <glyph glyph-name="Scaron" unicode="&#x160;" horiz-adv-x="1366" 
 />
    <glyph glyph-name="scaron" unicode="&#x161;" horiz-adv-x="1024" 
 />
    <glyph glyph-name="Zcaron" unicode="&#x17d;" horiz-adv-x="1251" 
 />
    <glyph glyph-name="zcaron" unicode="&#x17e;" horiz-adv-x="1024" 
 />
    <glyph glyph-name="brokenbar" unicode="&#xa6;" horiz-adv-x="532" 
 />
    <glyph glyph-name="Eth" unicode="&#xd0;" horiz-adv-x="1479" 
 />
    <glyph glyph-name="eth" unicode="&#xf0;" 
 />
    <glyph glyph-name="Yacute" unicode="&#xdd;" horiz-adv-x="1366" 
 />
    <glyph glyph-name="yacute" unicode="&#xfd;" horiz-adv-x="1024" 
 />
    <glyph glyph-name="Thorn" unicode="&#xde;" horiz-adv-x="1366" 
 />
    <glyph glyph-name="thorn" unicode="&#xfe;" 
 />
    <glyph glyph-name="minus" unicode="&#x2212;" horiz-adv-x="1196" 
 />
    <glyph glyph-name="multiply" unicode="&#xd7;" horiz-adv-x="1196" 
 />
    <glyph glyph-name="uni00B9" unicode="&#xb9;" horiz-adv-x="682" 
 />
    <glyph glyph-name="uni00B2" unicode="&#xb2;" horiz-adv-x="682" 
 />
    <glyph glyph-name="uni00B3" unicode="&#xb3;" horiz-adv-x="682" 
 />
    <glyph glyph-name="onehalf" unicode="&#xbd;" horiz-adv-x="1708" 
 />
    <glyph glyph-name="onequarter" unicode="&#xbc;" horiz-adv-x="1708" 
 />
    <glyph glyph-name="threequarters" unicode="&#xbe;" horiz-adv-x="1708" 
 />
    <glyph glyph-name="franc" unicode="&#x20a3;" 
 />
    <glyph glyph-name="Gbreve" unicode="&#x11e;" horiz-adv-x="1593" 
 />
    <glyph glyph-name="gbreve" unicode="&#x11f;" 
 />
    <glyph glyph-name="Idotaccent" unicode="&#x130;" horiz-adv-x="569" 
 />
    <glyph glyph-name="Scedilla" unicode="&#x15e;" horiz-adv-x="1366" 
 />
    <glyph glyph-name="scedilla" unicode="&#x15f;" horiz-adv-x="1024" 
 />
    <glyph glyph-name="Cacute" unicode="&#x106;" horiz-adv-x="1479" 
 />
    <glyph glyph-name="cacute" unicode="&#x107;" horiz-adv-x="1024" 
 />
    <glyph glyph-name="Ccaron" unicode="&#x10c;" horiz-adv-x="1479" 
 />
    <glyph glyph-name="ccaron" unicode="&#x10d;" horiz-adv-x="1024" 
 />
    <glyph glyph-name="dcroat" unicode="&#x111;" 
 />
    <glyph glyph-name="currency" unicode="&#xa4;" 
 />
    <glyph glyph-name="macron" unicode="&#xaf;" horiz-adv-x="1131" 
 />
    <glyph glyph-name="Amacron" unicode="&#x100;" horiz-adv-x="1366" 
 />
    <glyph glyph-name="amacron" unicode="&#x101;" 
 />
    <glyph glyph-name="Abreve" unicode="&#x102;" horiz-adv-x="1366" 
 />
    <glyph glyph-name="abreve" unicode="&#x103;" 
 />
    <glyph glyph-name="Aogonek" unicode="&#x104;" horiz-adv-x="1366" 
 />
    <glyph glyph-name="aogonek" unicode="&#x105;" 
 />
    <glyph glyph-name="Ccircumflex" unicode="&#x108;" horiz-adv-x="1479" 
 />
    <glyph glyph-name="ccircumflex" unicode="&#x109;" horiz-adv-x="1024" 
 />
    <glyph glyph-name="Cdotaccent" unicode="&#x10a;" horiz-adv-x="1479" 
 />
    <glyph glyph-name="cdotaccent" unicode="&#x10b;" horiz-adv-x="1024" 
 />
    <glyph glyph-name="Dcaron" unicode="&#x10e;" horiz-adv-x="1479" 
 />
    <glyph glyph-name="dcaron" unicode="&#x10f;" horiz-adv-x="1259" 
 />
    <glyph glyph-name="Dcroat" unicode="&#x110;" horiz-adv-x="1479" 
 />
    <glyph glyph-name="Emacron" unicode="&#x112;" horiz-adv-x="1366" 
 />
    <glyph glyph-name="emacron" unicode="&#x113;" 
 />
    <glyph glyph-name="Ebreve" unicode="&#x114;" horiz-adv-x="1366" 
 />
    <glyph glyph-name="ebreve" unicode="&#x115;" 
 />
    <glyph glyph-name="Edotaccent" unicode="&#x116;" horiz-adv-x="1366" 
 />
    <glyph glyph-name="edotaccent" unicode="&#x117;" 
 />
    <glyph glyph-name="Eogonek" unicode="&#x118;" horiz-adv-x="1366" 
 />
    <glyph glyph-name="eogonek" unicode="&#x119;" 
 />
    <glyph glyph-name="Ecaron" unicode="&#x11a;" horiz-adv-x="1366" 
 />
    <glyph glyph-name="ecaron" unicode="&#x11b;" 
 />
    <glyph glyph-name="Gcircumflex" unicode="&#x11c;" horiz-adv-x="1593" 
 />
    <glyph glyph-name="gcircumflex" unicode="&#x11d;" 
 />
    <glyph glyph-name="Gdotaccent" unicode="&#x120;" horiz-adv-x="1593" 
 />
    <glyph glyph-name="gdotaccent" unicode="&#x121;" 
 />
    <glyph glyph-name="Gcommaaccent" unicode="&#x122;" horiz-adv-x="1593" 
 />
    <glyph glyph-name="gcommaaccent" unicode="&#x123;" 
 />
    <glyph glyph-name="Hcircumflex" unicode="&#x124;" horiz-adv-x="1479" 
 />
    <glyph glyph-name="hcircumflex" unicode="&#x125;" 
 />
    <glyph glyph-name="Hbar" unicode="&#x126;" horiz-adv-x="1479" 
 />
    <glyph glyph-name="hbar" unicode="&#x127;" 
 />
    <glyph glyph-name="Itilde" unicode="&#x128;" horiz-adv-x="569" 
 />
    <glyph glyph-name="itilde" unicode="&#x129;" horiz-adv-x="569" 
 />
    <glyph glyph-name="Imacron" unicode="&#x12a;" horiz-adv-x="569" 
 />
    <glyph glyph-name="imacron" unicode="&#x12b;" horiz-adv-x="569" 
 />
    <glyph glyph-name="Ibreve" unicode="&#x12c;" horiz-adv-x="569" 
 />
    <glyph glyph-name="ibreve" unicode="&#x12d;" horiz-adv-x="569" 
 />
    <glyph glyph-name="Iogonek" unicode="&#x12e;" horiz-adv-x="569" 
 />
    <glyph glyph-name="iogonek" unicode="&#x12f;" horiz-adv-x="455" 
 />
    <glyph glyph-name="IJ" unicode="&#x132;" horiz-adv-x="1505" 
 />
    <glyph glyph-name="ij" unicode="&#x133;" horiz-adv-x="909" 
 />
    <glyph glyph-name="Jcircumflex" unicode="&#x134;" horiz-adv-x="1024" 
 />
    <glyph glyph-name="jcircumflex" unicode="&#x135;" horiz-adv-x="455" 
 />
    <glyph glyph-name="Kcommaaccent" unicode="&#x136;" horiz-adv-x="1366" 
 />
    <glyph glyph-name="kcommaaccent" unicode="&#x137;" horiz-adv-x="1024" 
 />
    <glyph glyph-name="kgreenlandic" unicode="&#x138;" horiz-adv-x="1024" 
 />
    <glyph glyph-name="Lacute" unicode="&#x139;" 
 />
    <glyph glyph-name="lacute" unicode="&#x13a;" horiz-adv-x="455" 
 />
    <glyph glyph-name="Lcommaaccent" unicode="&#x13b;" 
 />
    <glyph glyph-name="lcommaaccent" unicode="&#x13c;" horiz-adv-x="455" 
 />
    <glyph glyph-name="Lcaron" unicode="&#x13d;" 
 />
    <glyph glyph-name="lcaron" unicode="&#x13e;" horiz-adv-x="597" 
 />
    <glyph glyph-name="Ldot" unicode="&#x13f;" 
 />
    <glyph glyph-name="ldot" unicode="&#x140;" horiz-adv-x="684" 
 />
    <glyph glyph-name="Nacute" unicode="&#x143;" horiz-adv-x="1479" 
 />
    <glyph glyph-name="nacute" unicode="&#x144;" 
 />
    <glyph glyph-name="Ncommaaccent" unicode="&#x145;" horiz-adv-x="1479" 
 />
    <glyph glyph-name="ncommaaccent" unicode="&#x146;" 
 />
    <glyph glyph-name="Ncaron" unicode="&#x147;" horiz-adv-x="1479" 
 />
    <glyph glyph-name="ncaron" unicode="&#x148;" 
 />
    <glyph glyph-name="napostrophe" unicode="&#x149;" horiz-adv-x="1237" 
 />
    <glyph glyph-name="Eng" unicode="&#x14a;" horiz-adv-x="1481" 
 />
    <glyph glyph-name="eng" unicode="&#x14b;" 
 />
    <glyph glyph-name="Omacron" unicode="&#x14c;" horiz-adv-x="1593" 
 />
    <glyph glyph-name="omacron" unicode="&#x14d;" 
 />
    <glyph glyph-name="Obreve" unicode="&#x14e;" horiz-adv-x="1593" 
 />
    <glyph glyph-name="obreve" unicode="&#x14f;" 
 />
    <glyph glyph-name="Ohungarumlaut" unicode="&#x150;" horiz-adv-x="1593" 
 />
    <glyph glyph-name="ohungarumlaut" unicode="&#x151;" 
 />
    <glyph glyph-name="Racute" unicode="&#x154;" horiz-adv-x="1479" 
 />
    <glyph glyph-name="racute" unicode="&#x155;" horiz-adv-x="682" 
 />
    <glyph glyph-name="Rcommaaccent" unicode="&#x156;" horiz-adv-x="1479" 
 />
    <glyph glyph-name="rcommaaccent" unicode="&#x157;" horiz-adv-x="682" 
 />
    <glyph glyph-name="Rcaron" unicode="&#x158;" horiz-adv-x="1479" 
 />
    <glyph glyph-name="rcaron" unicode="&#x159;" horiz-adv-x="682" 
 />
    <glyph glyph-name="Sacute" unicode="&#x15a;" horiz-adv-x="1366" 
 />
    <glyph glyph-name="sacute" unicode="&#x15b;" horiz-adv-x="1024" 
 />
    <glyph glyph-name="Scircumflex" unicode="&#x15c;" horiz-adv-x="1366" 
 />
    <glyph glyph-name="scircumflex" unicode="&#x15d;" horiz-adv-x="1024" 
 />
    <glyph glyph-name="Tcommaaccent" unicode="&#x162;" horiz-adv-x="1251" 
 />
    <glyph glyph-name="tcommaaccent" unicode="&#x163;" horiz-adv-x="569" 
 />
    <glyph glyph-name="Tcaron" unicode="&#x164;" horiz-adv-x="1251" 
 />
    <glyph glyph-name="tcaron" unicode="&#x165;" horiz-adv-x="768" 
 />
    <glyph glyph-name="Tbar" unicode="&#x166;" horiz-adv-x="1251" 
 />
    <glyph glyph-name="tbar" unicode="&#x167;" horiz-adv-x="569" 
 />
    <glyph glyph-name="Utilde" unicode="&#x168;" horiz-adv-x="1479" 
 />
    <glyph glyph-name="utilde" unicode="&#x169;" 
 />
    <glyph glyph-name="Umacron" unicode="&#x16a;" horiz-adv-x="1479" 
 />
    <glyph glyph-name="umacron" unicode="&#x16b;" 
 />
    <glyph glyph-name="Ubreve" unicode="&#x16c;" horiz-adv-x="1479" 
 />
    <glyph glyph-name="ubreve" unicode="&#x16d;" 
 />
    <glyph glyph-name="Uring" unicode="&#x16e;" horiz-adv-x="1479" 
 />
    <glyph glyph-name="uring" unicode="&#x16f;" 
 />
    <glyph glyph-name="Uhungarumlaut" unicode="&#x170;" horiz-adv-x="1479" 
 />
    <glyph glyph-name="uhungarumlaut" unicode="&#x171;" 
 />
    <glyph glyph-name="Uogonek" unicode="&#x172;" horiz-adv-x="1479" 
 />
    <glyph glyph-name="uogonek" unicode="&#x173;" 
 />
    <glyph glyph-name="Wcircumflex" unicode="&#x174;" horiz-adv-x="1933" 
 />
    <glyph glyph-name="wcircumflex" unicode="&#x175;" horiz-adv-x="1479" 
 />
    <glyph glyph-name="Ycircumflex" unicode="&#x176;" horiz-adv-x="1366" 
 />
    <glyph glyph-name="ycircumflex" unicode="&#x177;" horiz-adv-x="1024" 
 />
    <glyph glyph-name="Zacute" unicode="&#x179;" horiz-adv-x="1251" 
 />
    <glyph glyph-name="zacute" unicode="&#x17a;" horiz-adv-x="1024" 
 />
    <glyph glyph-name="Zdotaccent" unicode="&#x17b;" horiz-adv-x="1251" 
 />
    <glyph glyph-name="zdotaccent" unicode="&#x17c;" horiz-adv-x="1024" 
 />
    <glyph glyph-name="longs" unicode="&#x17f;" horiz-adv-x="455" 
 />
    <glyph glyph-name="Aringacute" unicode="&#x1fa;" horiz-adv-x="1366" 
 />
    <glyph glyph-name="aringacute" unicode="&#x1fb;" 
 />
    <glyph glyph-name="AEacute" unicode="&#x1fc;" horiz-adv-x="2048" 
 />
    <glyph glyph-name="aeacute" unicode="&#x1fd;" horiz-adv-x="1821" 
 />
    <glyph glyph-name="Oslashacute" unicode="&#x1fe;" horiz-adv-x="1593" 
 />
    <glyph glyph-name="oslashacute" unicode="&#x1ff;" horiz-adv-x="1251" 
 />
    <glyph glyph-name="tonos" unicode="&#x384;" horiz-adv-x="682" 
 />
    <glyph glyph-name="dieresistonos" unicode="&#x385;" horiz-adv-x="682" 
 />
    <glyph glyph-name="Alphatonos" unicode="&#x386;" horiz-adv-x="1367" 
 />
    <glyph glyph-name="anoteleia" unicode="&#x387;" horiz-adv-x="569" 
 />
    <glyph glyph-name="Epsilontonos" unicode="&#x388;" horiz-adv-x="1606" 
 />
    <glyph glyph-name="Etatonos" unicode="&#x389;" horiz-adv-x="1716" 
 />
    <glyph glyph-name="Iotatonos" unicode="&#x38a;" horiz-adv-x="786" 
 />
    <glyph glyph-name="Omicrontonos" unicode="&#x38c;" horiz-adv-x="1586" 
 />
    <glyph glyph-name="Upsilontonos" unicode="&#x38e;" horiz-adv-x="1752" 
 />
    <glyph glyph-name="Omegatonos" unicode="&#x38f;" horiz-adv-x="1541" 
 />
    <glyph glyph-name="iotadieresistonos" unicode="&#x390;" horiz-adv-x="455" 
 />
    <glyph glyph-name="Alpha" unicode="&#x391;" horiz-adv-x="1366" 
 />
    <glyph glyph-name="Beta" unicode="&#x392;" horiz-adv-x="1366" 
 />
    <glyph glyph-name="Gamma" unicode="&#x393;" horiz-adv-x="1128" 
 />
    <glyph glyph-name="uni0394" unicode="&#x394;" horiz-adv-x="1368" 
 />
    <glyph glyph-name="Epsilon" unicode="&#x395;" horiz-adv-x="1366" 
 />
    <glyph glyph-name="Zeta" unicode="&#x396;" horiz-adv-x="1251" 
 />
    <glyph glyph-name="Eta" unicode="&#x397;" horiz-adv-x="1479" 
 />
    <glyph glyph-name="Theta" unicode="&#x398;" horiz-adv-x="1593" 
 />
    <glyph glyph-name="Iota" unicode="&#x399;" horiz-adv-x="569" 
 />
    <glyph glyph-name="Kappa" unicode="&#x39a;" horiz-adv-x="1366" 
 />
    <glyph glyph-name="Lambda" unicode="&#x39b;" horiz-adv-x="1368" 
 />
    <glyph glyph-name="Mu" unicode="&#x39c;" horiz-adv-x="1706" 
 />
    <glyph glyph-name="Nu" unicode="&#x39d;" horiz-adv-x="1479" 
 />
    <glyph glyph-name="Xi" unicode="&#x39e;" horiz-adv-x="1331" 
 />
    <glyph glyph-name="Omicron" unicode="&#x39f;" horiz-adv-x="1593" 
 />
    <glyph glyph-name="Pi" unicode="&#x3a0;" horiz-adv-x="1479" 
 />
    <glyph glyph-name="Rho" unicode="&#x3a1;" horiz-adv-x="1366" 
 />
    <glyph glyph-name="Sigma" unicode="&#x3a3;" horiz-adv-x="1266" 
 />
    <glyph glyph-name="Tau" unicode="&#x3a4;" horiz-adv-x="1251" 
 />
    <glyph glyph-name="Upsilon" unicode="&#x3a5;" horiz-adv-x="1366" 
 />
    <glyph glyph-name="Phi" unicode="&#x3a6;" horiz-adv-x="1634" 
 />
    <glyph glyph-name="Chi" unicode="&#x3a7;" horiz-adv-x="1366" 
 />
    <glyph glyph-name="Psi" unicode="&#x3a8;" horiz-adv-x="1711" 
 />
    <glyph glyph-name="uni03A9" unicode="&#x3a9;" horiz-adv-x="1531" 
 />
    <glyph glyph-name="Iotadieresis" unicode="&#x3aa;" horiz-adv-x="569" 
 />
    <glyph glyph-name="Upsilondieresis" unicode="&#x3ab;" horiz-adv-x="1366" 
 />
    <glyph glyph-name="alphatonos" unicode="&#x3ac;" horiz-adv-x="1184" 
 />
    <glyph glyph-name="epsilontonos" unicode="&#x3ad;" horiz-adv-x="913" 
 />
    <glyph glyph-name="etatonos" unicode="&#x3ae;" 
 />
    <glyph glyph-name="iotatonos" unicode="&#x3af;" horiz-adv-x="455" 
 />
    <glyph glyph-name="upsilondieresistonos" unicode="&#x3b0;" horiz-adv-x="1120" 
 />
    <glyph glyph-name="alpha" unicode="&#x3b1;" horiz-adv-x="1184" 
 />
    <glyph glyph-name="beta" unicode="&#x3b2;" horiz-adv-x="1178" 
 />
    <glyph glyph-name="gamma" unicode="&#x3b3;" horiz-adv-x="1024" 
 />
    <glyph glyph-name="delta" unicode="&#x3b4;" horiz-adv-x="1140" 
 />
    <glyph glyph-name="epsilon" unicode="&#x3b5;" horiz-adv-x="913" 
 />
    <glyph glyph-name="zeta" unicode="&#x3b6;" horiz-adv-x="903" 
 />
    <glyph glyph-name="eta" unicode="&#x3b7;" 
 />
    <glyph glyph-name="theta" unicode="&#x3b8;" 
 />
    <glyph glyph-name="iota" unicode="&#x3b9;" horiz-adv-x="455" 
 />
    <glyph glyph-name="kappa" unicode="&#x3ba;" horiz-adv-x="1024" 
 />
    <glyph glyph-name="lambda" unicode="&#x3bb;" horiz-adv-x="1024" 
 />
    <glyph glyph-name="uni03BC" unicode="&#x3bc;" horiz-adv-x="1180" 
 />
    <glyph glyph-name="nu" unicode="&#x3bd;" horiz-adv-x="1024" 
 />
    <glyph glyph-name="xi" unicode="&#x3be;" horiz-adv-x="917" 
 />
    <glyph glyph-name="omicron" unicode="&#x3bf;" 
 />
    <glyph glyph-name="pi" unicode="&#x3c0;" horiz-adv-x="1413" 
 />
    <glyph glyph-name="rho" unicode="&#x3c1;" horiz-adv-x="1165" 
 />
    <glyph glyph-name="sigma1" unicode="&#x3c2;" horiz-adv-x="987" 
 />
    <glyph glyph-name="sigma" unicode="&#x3c3;" horiz-adv-x="1264" 
 />
    <glyph glyph-name="tau" unicode="&#x3c4;" horiz-adv-x="809" 
 />
    <glyph glyph-name="upsilon" unicode="&#x3c5;" horiz-adv-x="1120" 
 />
    <glyph glyph-name="phi" unicode="&#x3c6;" horiz-adv-x="1328" 
 />
    <glyph glyph-name="chi" unicode="&#x3c7;" horiz-adv-x="1075" 
 />
    <glyph glyph-name="psi" unicode="&#x3c8;" horiz-adv-x="1460" 
 />
    <glyph glyph-name="omega" unicode="&#x3c9;" horiz-adv-x="1599" 
 />
    <glyph glyph-name="iotadieresis" unicode="&#x3ca;" horiz-adv-x="455" 
 />
    <glyph glyph-name="upsilondieresis" unicode="&#x3cb;" horiz-adv-x="1120" 
 />
    <glyph glyph-name="omicrontonos" unicode="&#x3cc;" 
 />
    <glyph glyph-name="upsilontonos" unicode="&#x3cd;" horiz-adv-x="1120" 
 />
    <glyph glyph-name="omegatonos" unicode="&#x3ce;" horiz-adv-x="1599" 
 />
    <glyph glyph-name="afii10023" unicode="&#x401;" horiz-adv-x="1367" 
 />
    <glyph glyph-name="afii10051" unicode="&#x402;" horiz-adv-x="1771" 
 />
    <glyph glyph-name="afii10052" unicode="&#x403;" horiz-adv-x="1109" 
 />
    <glyph glyph-name="afii10053" unicode="&#x404;" horiz-adv-x="1472" 
 />
    <glyph glyph-name="afii10054" unicode="&#x405;" horiz-adv-x="1366" 
 />
    <glyph glyph-name="afii10055" unicode="&#x406;" horiz-adv-x="569" 
 />
    <glyph glyph-name="afii10056" unicode="&#x407;" horiz-adv-x="569" 
 />
    <glyph glyph-name="afii10057" unicode="&#x408;" horiz-adv-x="1024" 
 />
    <glyph glyph-name="afii10058" unicode="&#x409;" horiz-adv-x="2165" 
 />
    <glyph glyph-name="afii10059" unicode="&#x40a;" horiz-adv-x="2069" 
 />
    <glyph glyph-name="afii10060" unicode="&#x40b;" horiz-adv-x="1749" 
 />
    <glyph glyph-name="afii10061" unicode="&#x40c;" horiz-adv-x="1193" 
 />
    <glyph glyph-name="afii10062" unicode="&#x40e;" horiz-adv-x="1301" 
 />
    <glyph glyph-name="afii10145" unicode="&#x40f;" horiz-adv-x="1472" 
 />
    <glyph glyph-name="afii10017" unicode="&#x410;" horiz-adv-x="1366" 
 />
    <glyph glyph-name="afii10018" unicode="&#x411;" horiz-adv-x="1344" 
 />
    <glyph glyph-name="afii10019" unicode="&#x412;" horiz-adv-x="1366" 
 />
    <glyph glyph-name="afii10020" unicode="&#x413;" horiz-adv-x="1109" 
 />
    <glyph glyph-name="afii10021" unicode="&#x414;" horiz-adv-x="1387" 
 />
    <glyph glyph-name="afii10022" unicode="&#x415;" horiz-adv-x="1366" 
 />
    <glyph glyph-name="afii10024" unicode="&#x416;" horiz-adv-x="1891" 
 />
    <glyph glyph-name="afii10025" unicode="&#x417;" horiz-adv-x="1237" 
 />
    <glyph glyph-name="afii10026" unicode="&#x418;" horiz-adv-x="1472" 
 />
    <glyph glyph-name="afii10027" unicode="&#x419;" horiz-adv-x="1472" 
 />
    <glyph glyph-name="afii10028" unicode="&#x41a;" horiz-adv-x="1193" 
 />
    <glyph glyph-name="afii10029" unicode="&#x41b;" horiz-adv-x="1344" 
 />
    <glyph glyph-name="afii10030" unicode="&#x41c;" horiz-adv-x="1706" 
 />
    <glyph glyph-name="afii10031" unicode="&#x41d;" horiz-adv-x="1479" 
 />
    <glyph glyph-name="afii10032" unicode="&#x41e;" horiz-adv-x="1593" 
 />
    <glyph glyph-name="afii10033" unicode="&#x41f;" horiz-adv-x="1472" 
 />
    <glyph glyph-name="afii10034" unicode="&#x420;" horiz-adv-x="1366" 
 />
    <glyph glyph-name="afii10035" unicode="&#x421;" horiz-adv-x="1479" 
 />
    <glyph glyph-name="afii10036" unicode="&#x422;" horiz-adv-x="1251" 
 />
    <glyph glyph-name="afii10037" unicode="&#x423;" horiz-adv-x="1301" 
 />
    <glyph glyph-name="afii10038" unicode="&#x424;" horiz-adv-x="1557" 
 />
    <glyph glyph-name="afii10039" unicode="&#x425;" horiz-adv-x="1366" 
 />
    <glyph glyph-name="afii10040" unicode="&#x426;" horiz-adv-x="1515" 
 />
    <glyph glyph-name="afii10041" unicode="&#x427;" horiz-adv-x="1365" 
 />
    <glyph glyph-name="afii10042" unicode="&#x428;" horiz-adv-x="1877" 
 />
    <glyph glyph-name="afii10043" unicode="&#x429;" horiz-adv-x="1920" 
 />
    <glyph glyph-name="afii10044" unicode="&#x42a;" horiz-adv-x="1621" 
 />
    <glyph glyph-name="afii10045" unicode="&#x42b;" horiz-adv-x="1813" 
 />
    <glyph glyph-name="afii10046" unicode="&#x42c;" horiz-adv-x="1344" 
 />
    <glyph glyph-name="afii10047" unicode="&#x42d;" horiz-adv-x="1472" 
 />
    <glyph glyph-name="afii10048" unicode="&#x42e;" horiz-adv-x="2069" 
 />
    <glyph glyph-name="afii10049" unicode="&#x42f;" horiz-adv-x="1479" 
 />
    <glyph glyph-name="afii10065" unicode="&#x430;" 
 />
    <glyph glyph-name="afii10066" unicode="&#x431;" horiz-adv-x="1173" 
 />
    <glyph glyph-name="afii10067" unicode="&#x432;" horiz-adv-x="1088" 
 />
    <glyph glyph-name="afii10068" unicode="&#x433;" horiz-adv-x="747" 
 />
    <glyph glyph-name="afii10069" unicode="&#x434;" horiz-adv-x="1195" 
 />
    <glyph glyph-name="afii10070" unicode="&#x435;" 
 />
    <glyph glyph-name="afii10072" unicode="&#x436;" horiz-adv-x="1370" 
 />
    <glyph glyph-name="afii10073" unicode="&#x437;" horiz-adv-x="939" 
 />
    <glyph glyph-name="afii10074" unicode="&#x438;" horiz-adv-x="1144" 
 />
    <glyph glyph-name="afii10075" unicode="&#x439;" horiz-adv-x="1144" 
 />
    <glyph glyph-name="afii10076" unicode="&#x43a;" horiz-adv-x="896" 
 />
    <glyph glyph-name="afii10077" unicode="&#x43b;" horiz-adv-x="1195" 
 />
    <glyph glyph-name="afii10078" unicode="&#x43c;" horiz-adv-x="1408" 
 />
    <glyph glyph-name="afii10079" unicode="&#x43d;" horiz-adv-x="1131" 
 />
    <glyph glyph-name="afii10080" unicode="&#x43e;" 
 />
    <glyph glyph-name="afii10081" unicode="&#x43f;" horiz-adv-x="1109" 
 />
    <glyph glyph-name="afii10082" unicode="&#x440;" 
 />
    <glyph glyph-name="afii10083" unicode="&#x441;" horiz-adv-x="1024" 
 />
    <glyph glyph-name="afii10084" unicode="&#x442;" horiz-adv-x="938" 
 />
    <glyph glyph-name="afii10085" unicode="&#x443;" horiz-adv-x="1024" 
 />
    <glyph glyph-name="afii10086" unicode="&#x444;" horiz-adv-x="1685" 
 />
    <glyph glyph-name="afii10087" unicode="&#x445;" horiz-adv-x="1024" 
 />
    <glyph glyph-name="afii10088" unicode="&#x446;" horiz-adv-x="1173" 
 />
    <glyph glyph-name="afii10089" unicode="&#x447;" horiz-adv-x="1067" 
 />
    <glyph glyph-name="afii10090" unicode="&#x448;" horiz-adv-x="1643" 
 />
    <glyph glyph-name="afii10091" unicode="&#x449;" horiz-adv-x="1685" 
 />
    <glyph glyph-name="afii10092" unicode="&#x44a;" horiz-adv-x="1280" 
 />
    <glyph glyph-name="afii10093" unicode="&#x44b;" horiz-adv-x="1472" 
 />
    <glyph glyph-name="afii10094" unicode="&#x44c;" horiz-adv-x="1067" 
 />
    <glyph glyph-name="afii10095" unicode="&#x44d;" horiz-adv-x="1045" 
 />
    <glyph glyph-name="afii10096" unicode="&#x44e;" horiz-adv-x="1536" 
 />
    <glyph glyph-name="afii10097" unicode="&#x44f;" horiz-adv-x="1109" 
 />
    <glyph glyph-name="afii10071" unicode="&#x451;" 
 />
    <glyph glyph-name="afii10099" unicode="&#x452;" 
 />
    <glyph glyph-name="afii10100" unicode="&#x453;" horiz-adv-x="747" 
 />
    <glyph glyph-name="afii10101" unicode="&#x454;" horiz-adv-x="1045" 
 />
    <glyph glyph-name="afii10102" unicode="&#x455;" horiz-adv-x="1024" 
 />
    <glyph glyph-name="afii10103" unicode="&#x456;" horiz-adv-x="455" 
 />
    <glyph glyph-name="afii10104" unicode="&#x457;" horiz-adv-x="569" 
 />
    <glyph glyph-name="afii10105" unicode="&#x458;" horiz-adv-x="455" 
 />
    <glyph glyph-name="afii10106" unicode="&#x459;" horiz-adv-x="1856" 
 />
    <glyph glyph-name="afii10107" unicode="&#x45a;" horiz-adv-x="1664" 
 />
    <glyph glyph-name="afii10108" unicode="&#x45b;" 
 />
    <glyph glyph-name="afii10109" unicode="&#x45c;" horiz-adv-x="896" 
 />
    <glyph glyph-name="afii10110" unicode="&#x45e;" horiz-adv-x="1024" 
 />
    <glyph glyph-name="afii10193" unicode="&#x45f;" horiz-adv-x="1131" 
 />
    <glyph glyph-name="afii10050" unicode="&#x490;" horiz-adv-x="1001" 
 />
    <glyph glyph-name="afii10098" unicode="&#x491;" horiz-adv-x="842" 
 />
    <glyph glyph-name="Wgrave" unicode="&#x1e80;" horiz-adv-x="1933" 
 />
    <glyph glyph-name="wgrave" unicode="&#x1e81;" horiz-adv-x="1479" 
 />
    <glyph glyph-name="Wacute" unicode="&#x1e82;" horiz-adv-x="1933" 
 />
    <glyph glyph-name="wacute" unicode="&#x1e83;" horiz-adv-x="1479" 
 />
    <glyph glyph-name="Wdieresis" unicode="&#x1e84;" horiz-adv-x="1933" 
 />
    <glyph glyph-name="wdieresis" unicode="&#x1e85;" horiz-adv-x="1479" 
 />
    <glyph glyph-name="Ygrave" unicode="&#x1ef2;" horiz-adv-x="1366" 
 />
    <glyph glyph-name="ygrave" unicode="&#x1ef3;" horiz-adv-x="1024" 
 />
    <glyph glyph-name="afii00208" unicode="&#x2015;" horiz-adv-x="2048" 
 />
    <glyph glyph-name="underscoredbl" unicode="&#x2017;" horiz-adv-x="1131" 
 />
    <glyph glyph-name="quotereversed" unicode="&#x201b;" horiz-adv-x="455" 
 />
    <glyph glyph-name="minute" unicode="&#x2032;" horiz-adv-x="384" 
 />
    <glyph glyph-name="second" unicode="&#x2033;" horiz-adv-x="725" 
 />
    <glyph glyph-name="exclamdbl" unicode="&#x203c;" horiz-adv-x="1024" 
 />
    <glyph glyph-name="uni203E" unicode="&#x203e;" horiz-adv-x="682" 
 />
    <glyph glyph-name="uni207F" unicode="&#x207f;" horiz-adv-x="747" 
 />
    <glyph glyph-name="lira" unicode="&#x20a4;" 
 />
    <glyph glyph-name="peseta" unicode="&#x20a7;" horiz-adv-x="2240" 
 />
    <glyph glyph-name="afii61248" unicode="&#x2105;" horiz-adv-x="1813" 
 />
    <glyph glyph-name="afii61289" unicode="&#x2113;" horiz-adv-x="662" 
 />
    <glyph glyph-name="afii61352" unicode="&#x2116;" horiz-adv-x="2197" 
 />
    <glyph glyph-name="estimated" unicode="&#x212e;" horiz-adv-x="1229" 
 />
    <glyph glyph-name="oneeighth" unicode="&#x215b;" horiz-adv-x="1708" 
 />
    <glyph glyph-name="threeeighths" unicode="&#x215c;" horiz-adv-x="1708" 
 />
    <glyph glyph-name="fiveeighths" unicode="&#x215d;" horiz-adv-x="1708" 
 />
    <glyph glyph-name="seveneighths" unicode="&#x215e;" horiz-adv-x="1708" 
 />
    <glyph glyph-name="arrowleft" unicode="&#x2190;" horiz-adv-x="2048" 
 />
    <glyph glyph-name="arrowup" unicode="&#x2191;" horiz-adv-x="1024" 
 />
    <glyph glyph-name="arrowright" unicode="&#x2192;" horiz-adv-x="2048" 
 />
    <glyph glyph-name="arrowdown" unicode="&#x2193;" horiz-adv-x="1024" 
 />
    <glyph glyph-name="arrowboth" unicode="&#x2194;" horiz-adv-x="2048" 
 />
    <glyph glyph-name="arrowupdn" unicode="&#x2195;" horiz-adv-x="1024" 
 />
    <glyph glyph-name="arrowupdnbse" unicode="&#x21a8;" horiz-adv-x="1024" 
 />
    <glyph glyph-name="orthogonal" unicode="&#x221f;" horiz-adv-x="2005" 
 />
    <glyph glyph-name="intersection" unicode="&#x2229;" horiz-adv-x="1472" 
 />
    <glyph glyph-name="equivalence" unicode="&#x2261;" horiz-adv-x="1195" 
 />
    <glyph glyph-name="house" unicode="&#x2302;" horiz-adv-x="1237" 
 />
    <glyph glyph-name="revlogicalnot" unicode="&#x2310;" horiz-adv-x="1196" 
 />
    <glyph glyph-name="integraltp" unicode="&#x2320;" horiz-adv-x="1237" 
 />
    <glyph glyph-name="integralbt" unicode="&#x2321;" horiz-adv-x="1237" 
 />
    <glyph glyph-name="SF100000" unicode="&#x2500;" horiz-adv-x="1451" 
 />
    <glyph glyph-name="SF110000" unicode="&#x2502;" horiz-adv-x="1280" 
 />
    <glyph glyph-name="SF010000" unicode="&#x250c;" horiz-adv-x="1451" 
 />
    <glyph glyph-name="SF030000" unicode="&#x2510;" horiz-adv-x="1451" 
 />
    <glyph glyph-name="SF020000" unicode="&#x2514;" horiz-adv-x="1451" 
 />
    <glyph glyph-name="SF040000" unicode="&#x2518;" horiz-adv-x="1451" 
 />
    <glyph glyph-name="SF080000" unicode="&#x251c;" horiz-adv-x="1451" 
 />
    <glyph glyph-name="SF090000" unicode="&#x2524;" horiz-adv-x="1451" 
 />
    <glyph glyph-name="SF060000" unicode="&#x252c;" horiz-adv-x="1451" 
 />
    <glyph glyph-name="SF070000" unicode="&#x2534;" horiz-adv-x="1451" 
 />
    <glyph glyph-name="SF050000" unicode="&#x253c;" horiz-adv-x="1451" 
 />
    <glyph glyph-name="SF430000" unicode="&#x2550;" horiz-adv-x="1451" 
 />
    <glyph glyph-name="SF240000" unicode="&#x2551;" horiz-adv-x="1451" 
 />
    <glyph glyph-name="SF510000" unicode="&#x2552;" horiz-adv-x="1451" 
 />
    <glyph glyph-name="SF520000" unicode="&#x2553;" horiz-adv-x="1451" 
 />
    <glyph glyph-name="SF390000" unicode="&#x2554;" horiz-adv-x="1451" 
 />
    <glyph glyph-name="SF220000" unicode="&#x2555;" horiz-adv-x="1451" 
 />
    <glyph glyph-name="SF210000" unicode="&#x2556;" horiz-adv-x="1451" 
 />
    <glyph glyph-name="SF250000" unicode="&#x2557;" horiz-adv-x="1451" 
 />
    <glyph glyph-name="SF500000" unicode="&#x2558;" horiz-adv-x="1451" 
 />
    <glyph glyph-name="SF490000" unicode="&#x2559;" horiz-adv-x="1451" 
 />
    <glyph glyph-name="SF380000" unicode="&#x255a;" horiz-adv-x="1451" 
 />
    <glyph glyph-name="SF280000" unicode="&#x255b;" horiz-adv-x="1451" 
 />
    <glyph glyph-name="SF270000" unicode="&#x255c;" horiz-adv-x="1451" 
 />
    <glyph glyph-name="SF260000" unicode="&#x255d;" horiz-adv-x="1451" 
 />
    <glyph glyph-name="SF360000" unicode="&#x255e;" horiz-adv-x="1451" 
 />
    <glyph glyph-name="SF370000" unicode="&#x255f;" horiz-adv-x="1451" 
 />
    <glyph glyph-name="SF420000" unicode="&#x2560;" horiz-adv-x="1451" 
 />
    <glyph glyph-name="SF190000" unicode="&#x2561;" horiz-adv-x="1451" 
 />
    <glyph glyph-name="SF200000" unicode="&#x2562;" horiz-adv-x="1451" 
 />
    <glyph glyph-name="SF230000" unicode="&#x2563;" horiz-adv-x="1451" 
 />
    <glyph glyph-name="SF470000" unicode="&#x2564;" horiz-adv-x="1451" 
 />
    <glyph glyph-name="SF480000" unicode="&#x2565;" horiz-adv-x="1451" 
 />
    <glyph glyph-name="SF410000" unicode="&#x2566;" horiz-adv-x="1451" 
 />
    <glyph glyph-name="SF450000" unicode="&#x2567;" horiz-adv-x="1451" 
 />
    <glyph glyph-name="SF460000" unicode="&#x2568;" horiz-adv-x="1451" 
 />
    <glyph glyph-name="SF400000" unicode="&#x2569;" horiz-adv-x="1451" 
 />
    <glyph glyph-name="SF540000" unicode="&#x256a;" horiz-adv-x="1451" 
 />
    <glyph glyph-name="SF530000" unicode="&#x256b;" horiz-adv-x="1451" 
 />
    <glyph glyph-name="SF440000" unicode="&#x256c;" horiz-adv-x="1451" 
 />
    <glyph glyph-name="upblock" unicode="&#x2580;" horiz-adv-x="1451" 
 />
    <glyph glyph-name="dnblock" unicode="&#x2584;" horiz-adv-x="1451" 
 />
    <glyph glyph-name="block" unicode="&#x2588;" horiz-adv-x="1451" 
 />
    <glyph glyph-name="lfblock" unicode="&#x258c;" horiz-adv-x="1451" 
 />
    <glyph glyph-name="rtblock" unicode="&#x2590;" horiz-adv-x="1451" 
 />
    <glyph glyph-name="ltshade" unicode="&#x2591;" horiz-adv-x="1451" 
 />
    <glyph glyph-name="shade" unicode="&#x2592;" horiz-adv-x="1451" 
 />
    <glyph glyph-name="dkshade" unicode="&#x2593;" horiz-adv-x="1493" 
 />
    <glyph glyph-name="filledbox" unicode="&#x25a0;" horiz-adv-x="1237" 
 />
    <glyph glyph-name="H22073" unicode="&#x25a1;" horiz-adv-x="1237" 
 />
    <glyph glyph-name="H18543" unicode="&#x25aa;" horiz-adv-x="726" 
 />
    <glyph glyph-name="H18551" unicode="&#x25ab;" horiz-adv-x="726" 
 />
    <glyph glyph-name="filledrect" unicode="&#x25ac;" horiz-adv-x="2048" 
 />
    <glyph glyph-name="triagup" unicode="&#x25b2;" horiz-adv-x="2027" 
 />
    <glyph glyph-name="triagrt" unicode="&#x25ba;" horiz-adv-x="2027" 
 />
    <glyph glyph-name="triagdn" unicode="&#x25bc;" horiz-adv-x="2027" 
 />
    <glyph glyph-name="triaglf" unicode="&#x25c4;" horiz-adv-x="2027" 
 />
    <glyph glyph-name="circle" unicode="&#x25cb;" horiz-adv-x="1237" 
 />
    <glyph glyph-name="H18533" unicode="&#x25cf;" horiz-adv-x="1237" 
 />
    <glyph glyph-name="invbullet" unicode="&#x25d8;" horiz-adv-x="1237" 
 />
    <glyph glyph-name="invcircle" unicode="&#x25d9;" horiz-adv-x="1237" 
 />
    <glyph glyph-name="openbullet" unicode="&#x25e6;" horiz-adv-x="726" 
 />
    <glyph glyph-name="smileface" unicode="&#x263a;" horiz-adv-x="2091" 
 />
    <glyph glyph-name="invsmileface" unicode="&#x263b;" horiz-adv-x="2155" 
 />
    <glyph glyph-name="sun" unicode="&#x263c;" horiz-adv-x="1877" 
 />
    <glyph glyph-name="female" unicode="&#x2640;" horiz-adv-x="1536" 
 />
    <glyph glyph-name="male" unicode="&#x2642;" horiz-adv-x="1536" 
 />
    <glyph glyph-name="spade" unicode="&#x2660;" horiz-adv-x="1088" 
 />
    <glyph glyph-name="club" unicode="&#x2663;" horiz-adv-x="1344" 
 />
    <glyph glyph-name="heart" unicode="&#x2665;" horiz-adv-x="1216" 
 />
    <glyph glyph-name="diamond" unicode="&#x2666;" horiz-adv-x="1045" 
 />
    <glyph glyph-name="musicalnote" unicode="&#x266a;" horiz-adv-x="1024" 
 />
    <glyph glyph-name="musicalnotedbl" unicode="&#x266b;" horiz-adv-x="1536" 
 />
    <glyph glyph-name="uniF004" unicode="&#xf004;" horiz-adv-x="682" 
 />
    <glyph glyph-name="uniF005" unicode="&#xf005;" horiz-adv-x="682" 
 />
    </font>
</defs>
</svg>
