<?xml version="1.0" encoding="utf-8"?>
<!-- Generator: Adobe Illustrator 18.0.0, SVG Export Plug-In . SVG Version: 6.00 Build 0)  -->
<!DOCTYPE svg PUBLIC "-//W3C//DTD SVG 1.1//EN" "http://www.w3.org/Graphics/SVG/1.1/DTD/svg11.dtd">
<svg xmlns="http://www.w3.org/2000/svg" version="1.1" id="Layer_1" x="0" y="0" viewBox="0 0 256 199">
  <style type="text/css">
	.st0{fill-rule:evenodd;clip-rule:evenodd;}
</style>
  <g>
    <path class="st0" d="M108.3,8.6c6.6-1,11.9,3.6,12,9.8c0.2,13.6-20.5,13.1-20.6,0.2C99.6,13.8,102.7,9.5,108.3,8.6z"/>
    <path class="st0" d="M127.2,18.5c2.1-0.4,5.3,1.5,5,4.8c-0.2,2.8-5.9,7.2-7.7,9.1c-1.4,1.5-2.4,2.6-4.1,4.3   c-1.2,1.3-3.2,3.9-4.3,4.1c-2.8,0.5-5.2-2.1-5-5c0.2-2.8,4.8-6.6,7.2-9.1C121.1,23.8,124.5,19,127.2,18.5z"/>
    <path class="st0" d="M138,35c-1-0.1-1.2-0.9-2.4-0.7c-2.4,0.5-1.4,3.1-2.2,5.3c-0.5,1.5-3.4,3.8-4.6,5c-1.3,1.3-3,4-5,4.3   c-3.3,0.5-7-3.1-5.8-7.2c0.4-1.4,2.7-3.6,4.1-5c2.8-2.9,6-6.2,8.9-9.4c1.2-1.2,3.7-4,4.8-4.3c3.5-1.1,7.3,2.4,6.5,6.7   C141.9,32.2,139.6,32.9,138,35z"/>
    <path class="st0" d="M113.1,29.8c0.2,1.3-2.9,2.8-3.4,5c-0.7,4.1,2.2,7.7,7,7.4c-0.5,4.7,2.9,8.7,7.9,7.9c-0.9,5.2,2,8.5,6.2,9.4   c-0.7,6.1,3.3,7.6,7.7,8.6c-2.7,2.2-5.8,8.7-8.9,10.3c-5.9,3.2-10.3-5.4-17.3-4.3c-1.7,0.3-2.4,1.3-4.1,2.4   C99.5,68.9,92,60,83.5,52.1c7.1-7.9,15.2-14.9,22.8-22.3C108.2,30.2,111.2,30.6,113.1,29.8z"/>
    <path class="st0" d="M148.1,41.8c-3-1.7-5.6-3.8-8.6-5.5c1.7-2.5,4.2-6.3,8.2-4.8C151.6,32.9,152.3,39.9,148.1,41.8z"/>
    <path class="st0" d="M156.7,46.1c0.7,1.3,1.3,2.7,1.9,4.1c-6.4,5.4-13.2,11.6-19,16.8c-3.4-0.5-6.1-1.6-7.4-4.1c0-1.2,0-2.4,0-3.6   c2.8-3.6,8.6-4.2,13.2-6c-0.2-2-2.7-3-4.6-4.3c-3.5-2.6-8.2-6-5.3-13.2C142.7,39.2,147.7,44.6,156.7,46.1z"/>
    <path class="st0" d="M158.9,46.6c-1.8-2.6-6.2-2.6-9.1-4.1C152.1,36.3,161.5,39.9,158.9,46.6z"/>
    <path class="st0" d="M133.5,42c0.9,4.1,3.7,6.2,6.7,8.2c-1.6,2.4-3.7,4.2-6.5,6c-1.1,0.7-1.9,1.8-2.6,1.9c-2.8,0.4-5-3-5.3-4.8   C124.9,47.4,132,45.5,133.5,42z"/>
    <path class="st0" d="M169,51.1c-12,9-22.5,19.5-32.4,30.5c-1.5-1.2-3.3-2.2-4.3-3.8c9.4-11.8,21-21.4,32.9-30.7   C166.6,48.2,167.6,49.9,169,51.1z"/>
    <path class="st0" d="M105.4,85.7c-9.5-10.4-19.6-20.2-29-30.7c1.7-1,2.8-2.7,4.3-3.8c6.7,7.2,18.1,17.8,25.9,26.4   c0.6,0.7,3.6,3.8,3.6,3.8C110.2,82.4,106,85.2,105.4,85.7z"/>
    <path class="st0" d="M141.4,51.1c0.7,0.4,1.2,0.9,1.9,1.2c-1,0.8-2.7,0.9-4.1,1.4C139.6,52.5,140.8,52.2,141.4,51.1z"/>
    <path class="st0" d="M89.3,70.8c-11.5,14.2-23.5,28-35.5,41.8c-8.6-3.5-16.8-7.3-25.4-10.8c13-12.7,27.1-25.6,41-38.4   c2.3-2.1,4.8-4.2,5.8-6.5c2.5,1.1,5.1,4.4,7.4,7C84.9,66.4,87.4,68.7,89.3,70.8z"/>
    <path class="st0" d="M245.8,166.1c-1.1-2.3-3-4.3-4.8-6.2c-28.3-30.9-57.8-62.3-86.4-93.1c-0.5,1.4,1.2,2.4,1.9,3.1   c29.1,31.6,59.7,64.4,88.3,96c-5.5-0.8-10.7-2-16.3-2.6c-26.9-30.3-54-60.4-80.6-91c4.2-3.4,8.1-8.2,12-11   c26.7,26.6,53.4,55.3,80.6,82.6c1.7,1.7,4.9,4.1,5.3,5.5c0.3,1.2-0.1,2.8,0,4.1C246,157.7,246.3,162.5,245.8,166.1z"/>
    <path class="st0" d="M103,85.4C95.2,97,87.8,109,80.2,120.7c-2.1-0.6-5.2-0.7-7,0.2c-5.8-2.6-11.9-4.9-17.5-7.7   c-0.4-0.5,0.7-1.6,1.4-2.4c10.7-12.5,22.5-26,33.1-38.9C94.6,76.3,99,80.7,103,85.4z M85.5,85.2c3.3,0.3,3.7-5.9-0.5-4.3   C82.5,81.8,83.8,85,85.5,85.2z M77.5,97c0.6-0.6,0.6-2.2,0.2-3.1C73.1,90.2,72.1,99.9,77.5,97z M65.3,110.6   c2.6-0.4,2.2-5.8-1.4-4.3C61.1,107.4,62.9,111.1,65.3,110.6z"/>
    <path class="st0" d="M224.2,94.8c1.1,10-1,18.9-7.9,21.6c-7.2-6.6-14.6-14.2-20.6-21.1C205.1,95.1,214.5,94.8,224.2,94.8z"/>
    <path class="st0" d="M184.3,116.2c-8.5-0.3-18.2-0.8-28.1-1c-13.7-0.2-30-3.1-37.7,3.4c-4,3.3-5.8,9.6-8.2,15.1   c-4.3,10.1-9.4,21.2-17,28.3c-2.5,2.3-6.3,3.6-10.3,4.8c-0.3-8.1-1.3-16.8-1.4-24.2c1.2-2.6,3.2-3,4.6-5.3c0.5-0.9,0.9-2.6,1.4-3.6   c1.1-2.1,3.4-3.6,5-5.5c2.9-3.4,6.2-8.2,7.9-12.7c1.7-4.6,3.2-13.5,6.7-16.1c4.6-3.4,18.4-2.9,26.2-2.9c10.2,0,19.2-0.1,28.3-0.5   c1,0,3.3-0.6,4.6-0.2c1.5,0.4,3.4,3.5,4.8,5C175.7,105.9,180.8,111.2,184.3,116.2z"/>
    <path class="st0" d="M20.7,99.8c16.7,7.3,33.4,14.6,50.4,21.6c-0.8,1.3-3.2,3.1-4.3,4.8c-15.5-3.3-31.2-6.4-46.8-9.6   C18.8,111.3,19.8,104.7,20.7,99.8z"/>
    <path class="st0" d="M110.7,137.3c3.7-9.1,5.5-19.7,17.5-20.9c8.7-0.8,19.3,0.2,29,0.2c6.9,0,14.1,0.5,21.6,0.7   c2.5,0.1,5.6-0.2,7,0.2c2,0.7,4,4.2,5.8,6.2c1.6,1.8,5.2,4.5,5.3,6.5c0.2,4.1-6.4,6.8-10.6,7.2c-5.6,0.5-12.3,0-18.7,0   C148.9,137.5,129.2,137.1,110.7,137.3z"/>
    <path class="st0" d="M66.3,127.4c-0.2,1.7-0.7,3.2-0.5,5.3c-17.5,0.1-34.9,0.4-52.3,0.7c-2.3-4.4-1.6-10.8-1.7-17   C29.9,120.1,47.9,123.9,66.3,127.4z"/>
    <path class="st0" d="M75.4,121.9c11.8-1.8,14.6,15,5,18.5C66.8,145.4,61.9,123.9,75.4,121.9z"/>
    <path class="st0" d="M65.8,134.2c1.3,2.3,2.5,4.7,4.6,6.2c-9.6,15.1-19.5,29.9-29.3,44.9c-9.6-4-16.7-11.9-22.3-19.9   C13,157.1,8.4,147.2,7,134.9C26.7,134.7,46,134.2,65.8,134.2z"/>
    <path class="st0" d="M109.9,138.7c21.9-0.2,43.1,0.3,64.8,0.2c0,7.9-2.7,13.6-7.9,16.8c-7.4,4.5-20.6,2.9-32.6,2.9   c-12.6,0-24.6-0.5-35-0.7c-0.1-1,1.4-2.7,2.4-4.1c3-4.1,5.7-9.4,7.9-14.4C109.7,139.2,109.6,138.8,109.9,138.7z"/>
    <path class="st0" d="M79.7,141.8c1.7,14.1,2,29.7,3.4,44.2c-5.8-1-11.9-1.7-16.1-4.3c2.1-13.2,4.1-26.5,6-39.8   C74.8,142.2,78,142.8,79.7,141.8z"/>
    <path class="st0" d="M153.1,160.3c-2.3,7.8-5.3,13.7-11.8,17c-6.3,3.3-17.2,2.6-27.4,2.6c-10.4,0-21.3,0-30,0   c-0.2-3.9-0.7-7.6-0.7-11.8c6.1-1.5,10.8-4.4,14.2-8.6C115.9,160,134.6,160.1,153.1,160.3z"/>
    <path class="st0" d="M71.5,141.4c-2,15.1-4.6,31.5-7,47c-8,2.9-16.1-1.1-20.4-5C53.1,169.2,62.4,155.4,71.5,141.4z"/>
  </g>
</svg>