<?xml version="1.0" encoding="iso-8859-1"?>
<!-- Generator: Adobe Illustrator 19.0.0, SVG Export Plug-In . SVG Version: 6.00 Build 0)  -->
<svg version="1.1" id="Layer_1" xmlns="http://www.w3.org/2000/svg" xmlns:xlink="http://www.w3.org/1999/xlink" x="0px" y="0px"
	 viewBox="0 0 512 512" style="enable-background:new 0 0 512 512;" xml:space="preserve">
<g>
	<g>
		<path d="M115.462,460.827l-6.602-75.259c-0.282-3.218-2.834-5.769-6.052-6.052l-75.262-6.606
			c-1.962-0.172-3.898,0.533-5.291,1.924L1.96,395.132c-3.999,3.999-1.508,10.847,4.126,11.341l64.135,5.629
			c3.218,0.282,5.769,2.834,6.052,6.052l5.628,64.135c0.494,5.633,7.343,8.125,11.341,4.126l20.296-20.296
			C114.931,464.726,115.635,462.789,115.462,460.827z"/>
	</g>
</g>
<g>
	<g>
		<path d="M510.041,395.133l-20.296-20.296c-1.393-1.392-3.329-2.098-5.291-1.924l-75.262,6.606
			c-3.218,0.282-5.769,2.834-6.052,6.052l-6.606,75.262c-0.172,1.962,0.533,3.898,1.924,5.291l20.296,20.296
			c3.999,3.999,10.847,1.508,11.343-4.126l5.628-64.135c0.282-3.218,2.834-5.769,6.052-6.052l64.135-5.629
			C511.548,405.982,514.04,399.132,510.041,395.133z"/>
	</g>
</g>
<g>
	<g>
		<path d="M410.659,132.31c10.865,10.866,29.45,5.87,33.421-8.955l19.982-74.565c3.979-14.847-9.613-28.444-24.463-24.467
			l-74.574,19.973c-14.848,3.975-19.809,22.57-8.958,33.422l13.174,13.174L256,204.133L142.758,90.892l13.175-13.174
			c10.869-10.87,5.866-29.452-8.958-33.422L72.402,24.323C57.554,20.346,43.958,33.94,47.938,48.79l19.983,74.564
			c3.978,14.847,22.571,19.805,33.421,8.955l13.166-13.166L227.75,232.385l-97.236,97.236l-54.861-4.814
			c-1.962-0.172-3.898,0.533-5.291,1.924l-20.296,20.296c-3.999,3.999-1.508,10.847,4.126,11.341l64.135,5.629
			c3.218,0.282,5.769,2.834,6.052,6.052l5.628,64.135c0.494,5.633,7.343,8.125,11.341,4.126l20.296-20.296
			c1.392-1.392,2.098-3.329,1.924-5.291l-4.813-54.844l97.244-97.244l97.244,97.244l-4.813,54.844
			c-0.172,1.962,0.533,3.898,1.924,5.291l20.298,20.296c3.999,3.999,10.847,1.508,11.341-4.126l5.628-64.135
			c0.282-3.218,2.834-5.769,6.052-6.052l64.135-5.629c5.636-0.493,8.128-7.342,4.13-11.34l-20.296-20.296
			c-1.393-1.392-3.329-2.098-5.291-1.924l-54.861,4.814l-97.236-97.236l113.241-113.243L410.659,132.31z"/>
	</g>
</g>
<g>
</g>
<g>
</g>
<g>
</g>
<g>
</g>
<g>
</g>
<g>
</g>
<g>
</g>
<g>
</g>
<g>
</g>
<g>
</g>
<g>
</g>
<g>
</g>
<g>
</g>
<g>
</g>
<g>
</g>
</svg>