<svg id="Capa_1" enable-background="new 0 0 512 512" height="512" viewBox="0 0 512 512" width="512" xmlns="http://www.w3.org/2000/svg"><g><path d="m322.671 2.755c-7.25-3.87-15.771-3.65-22.801.58-7.08 4.28-11.121 11.481-11.081 19.761v.01l.1 19.541c122.679 88.137 191.096 241.16 133.227 469.353h60.283c3.42 0 6.41-2.3 7.26-5.6 87.094-338.087-105.795-470.973-166.988-503.645z"/><path d="m142.802 115.311-87.715-90.054c-3.581-3.677-9.715-.216-8.42 4.75l33.933 130.146z"/><path d="m258.968 58.918c-24.39-16.26-47.505-27.594-65.63-35.154-3.529-1.472-7.33 1.413-6.88 5.21l8.306 70.066c.01.03.01.07.02.11.81 7.3-1.65 14.531-6.56 19.801-2.629 2.82-156.459 113.408-160.808 116.536-29.081 20.961-36.022 61.923-15.491 91.294l21.841 31.252c6.28 8.99 18.391 12.011 28.161 7.04.4-.2.81-.39 1.23-.56l46.282-18.521c14.513-5.812 30.469-1.974 40.792 9.17 10.511 11.351 12.881 27.661 6.04 41.562-16.831 34.202-26.771 70.283-29.541 107.265-.322 4.298 3.119 8.01 7.48 8.01h256.923c58.753-222.592-7.685-369.928-132.165-453.081zm-183.919 245.622c-7.06 4.402-16.289 2.226-20.671-4.77l-5.62-9c-4.39-7.02-2.25-16.281 4.77-20.671 7.03-4.39 16.281-2.25 20.671 4.77l5.62 9c4.39 7.02 2.26 16.281-4.77 20.671zm143.027-68.103c-20.477 0-37.221-14.107-41.852-32.632-2.02-8.03 2.87-16.181 10.901-18.191 8.04-2.02 16.191 2.87 18.201 10.901 3.221 12.984 22.118 13.391 25.491 0 2.02-8.04 10.16-12.921 18.201-10.901 13.768 3.442 10.671 19.115 10.671 19.011.01.01.01.01 0 .02-5.082 18.771-22.082 31.792-41.613 31.792z"/></g></svg>