<?xml version="1.0" standalone="no"?>
<!DOCTYPE svg PUBLIC "-//W3C//DTD SVG 20010904//EN"
 "http://www.w3.org/TR/2001/REC-SVG-20010904/DTD/svg10.dtd">
<svg version="1.0" xmlns="http://www.w3.org/2000/svg"
 width="1280.000000pt" height="1018.000000pt" viewBox="0 0 1280.000000 1018.000000"
 preserveAspectRatio="xMidYMid meet">
<metadata>
Created by potrace 1.15, written by Peter Selinger 2001-2017
</metadata>
<g transform="translate(0.000000,1018.000000) scale(0.100000,-0.100000)"
fill="#000000" stroke="none">
<path d="M7001 10169 c-22 -7 -83 -58 -180 -153 -193 -188 -218 -201 -426
-217 -473 -36 -1089 -174 -1720 -384 -419 -139 -677 -256 -900 -406 -149 -101
-196 -121 -330 -141 -97 -14 -426 -14 -710 1 -115 6 -300 11 -411 11 -167 0
-214 -3 -278 -20 -101 -26 -182 -69 -261 -142 -163 -150 -245 -358 -260 -661
-10 -211 -41 -437 -105 -762 -40 -203 -45 -255 -30 -299 18 -56 46 -69 127
-62 94 9 118 -4 117 -64 0 -37 -15 -73 -86 -200 -386 -701 -589 -1158 -693
-1568 -30 -117 -31 -147 -5 -189 33 -55 128 -57 275 -8 340 116 538 297 553
507 l5 72 -26 -16 c-14 -10 -45 -22 -70 -29 -61 -15 -102 6 -118 59 -25 86 38
286 151 475 182 306 603 797 830 968 201 152 440 274 701 358 203 66 388 101
733 140 149 18 221 79 308 261 106 225 112 234 188 311 88 89 181 147 313 194
149 53 248 69 437 69 362 -1 536 -59 1365 -454 674 -322 850 -387 1065 -397
113 -5 117 -4 240 35 69 22 142 42 163 46 70 13 139 -32 387 -248 150 -131
268 -220 258 -195 -4 8 -25 55 -47 106 -149 341 -221 651 -221 956 0 261 46
461 156 684 55 112 69 128 95 113 21 -14 23 -189 4 -475 -9 -137 -18 -353 -21
-480 -5 -193 -3 -240 10 -290 9 -33 21 -136 27 -230 5 -93 17 -190 25 -215 36
-114 164 -286 282 -380 68 -54 137 -80 213 -80 116 0 126 35 49 171 -155 270
-231 499 -231 695 0 118 15 186 64 279 38 71 127 164 181 189 53 25 124 18
173 -17 l36 -26 100 92 c330 306 482 397 657 397 62 0 86 -5 128 -26 62 -31
102 -75 102 -113 0 -65 -106 -165 -247 -231 -110 -53 -137 -74 -222 -174 -65
-77 -191 -252 -191 -266 0 -4 52 11 116 32 341 114 706 104 1048 -28 163 -63
476 -235 476 -261 0 -5 -4 -14 -9 -22 -10 -16 -9 -16 -234 23 -232 40 -409 32
-459 -21 -30 -32 -35 -111 -13 -208 9 -42 14 -80 10 -83 -4 -4 -19 8 -34 26
-15 17 -32 32 -38 32 -6 0 -16 -23 -22 -50 -62 -290 159 -449 889 -639 292
-76 433 -138 597 -259 142 -106 189 -180 165 -261 -25 -81 -55 -94 -332 -145
-342 -62 -575 -80 -1072 -80 -408 -1 -417 -1 -445 20 -46 34 -44 93 6 203 23
48 44 108 47 133 7 49 -7 88 -31 88 -8 0 -62 -31 -120 -70 -415 -273 -834
-423 -1318 -471 -152 -15 -573 -6 -722 15 -192 27 -295 48 -295 60 0 6 73 35
162 64 182 60 336 129 437 196 66 44 191 166 191 186 0 6 -41 -10 -91 -36
-110 -55 -292 -117 -420 -144 -195 -40 -449 -56 -614 -40 -235 23 -414 71
-865 235 -595 215 -825 279 -1100 305 -228 22 -453 -19 -504 -92 -57 -81 42
-241 203 -327 34 -18 137 -59 229 -92 175 -61 276 -107 274 -124 -3 -21 -181
-25 -1027 -22 -936 2 -973 1 -1278 -54 -542 -96 -1003 -313 -1319 -618 -54
-52 -59 -54 -82 -41 l-25 13 33 41 c99 122 85 205 -46 270 -61 30 -109 33
-157 8 -56 -28 -73 -60 -72 -132 0 -51 -5 -73 -26 -113 -32 -58 -138 -159
-237 -225 -139 -92 -518 -272 -796 -377 -172 -65 -242 -121 -342 -270 -115
-172 -293 -568 -372 -829 -71 -232 -90 -349 -90 -551 1 -153 4 -192 22 -259
12 -44 24 -82 27 -85 8 -7 114 99 201 201 64 75 82 90 132 108 98 37 170 80
221 135 55 58 67 91 102 275 58 313 173 603 331 834 40 59 82 125 92 147 19
38 46 56 66 44 20 -12 9 -47 -40 -129 -68 -113 -170 -328 -218 -461 -56 -154
-109 -375 -123 -507 -13 -130 -47 -275 -84 -355 -18 -39 -25 -73 -25 -114 0
-131 -33 -315 -134 -759 -81 -355 -105 -577 -86 -794 7 -78 14 -211 14 -296 1
-149 2 -157 29 -208 l27 -52 -16 -63 c-36 -140 -14 -293 55 -376 28 -34 28
-34 13 -83 -19 -67 -9 -125 29 -171 24 -29 34 -35 44 -27 26 21 74 156 149
416 118 414 133 448 323 754 114 184 198 339 269 493 30 67 67 135 82 151 35
37 129 80 210 95 35 7 139 16 230 21 251 14 363 47 732 218 246 113 297 126
472 119 92 -3 155 -12 205 -26 123 -35 153 -27 153 42 0 63 -52 155 -147 264
-47 54 -280 292 -518 528 -610 608 -745 773 -827 1010 -68 199 -34 411 102
618 301 462 934 770 1770 862 476 51 950 40 2015 -50 226 -19 509 -39 630 -44
211 -10 293 -22 335 -51 12 -9 7 -18 -34 -53 -28 -23 -113 -96 -190 -162 -172
-145 -447 -419 -539 -535 -38 -47 -94 -123 -127 -171 -214 -312 -285 -654
-149 -725 77 -39 277 9 564 136 475 210 939 565 1454 1113 45 48 85 87 90 87
4 0 23 -10 41 -22 45 -31 93 -121 118 -226 54 -214 169 -370 336 -453 157 -77
253 -65 354 46 87 95 159 262 197 456 9 46 20 156 24 244 8 172 16 201 68 249
63 58 58 58 803 67 762 9 1091 21 1380 49 107 11 281 24 385 29 296 16 431 47
609 139 105 54 198 140 237 217 20 41 24 65 24 135 0 100 -22 158 -96 256
l-46 62 49 22 c70 31 312 259 345 324 104 204 -47 477 -532 961 -537 536
-1248 1061 -1881 1387 -306 157 -547 249 -806 307 -201 46 -233 55 -417 126
-237 90 -419 149 -606 195 -210 51 -341 70 -565 80 -111 5 -208 15 -243 24
-118 32 -228 102 -372 235 -55 52 -121 102 -152 117 -61 30 -138 39 -192 23z
m134 -439 c451 -341 701 -1071 600 -1751 -24 -158 -23 -158 -87 -7 -152 362
-371 874 -378 881 -4 4 6 -54 22 -130 15 -76 37 -199 49 -273 22 -149 35 -440
22 -510 l-9 -45 -88 90 c-237 240 -385 515 -432 800 -22 134 -14 388 16 528
26 122 78 282 131 403 l41 93 26 -16 c15 -10 54 -38 87 -63z m-4227 -1085 c41
-9 96 -26 124 -38 l50 -22 -64 -75 c-86 -100 -182 -188 -278 -256 -87 -60 -82
-55 -237 -289 -143 -216 -230 -331 -336 -442 -200 -209 -374 -295 -437 -215
-21 25 -22 35 -17 142 5 118 37 396 82 715 38 267 72 324 244 414 142 73 267
91 601 86 135 -2 217 -8 268 -20z m8147 -642 c14 -47 23 -88 20 -91 -2 -3 -23
7 -46 22 -68 46 -83 111 -41 191 l15 30 14 -33 c7 -18 24 -71 38 -119z m425
-63 c20 -37 12 -77 -20 -104 -42 -35 -86 -41 -161 -22 -61 16 -77 23 -68 29 2
2 24 15 49 29 26 15 70 45 100 67 56 42 78 43 100 1z m-9510 -2884 c0 -27 -51
-120 -147 -269 -186 -289 -264 -453 -336 -707 -56 -198 -81 -325 -67 -349 6
-12 14 -21 17 -21 4 0 56 52 116 115 60 64 117 120 127 125 15 8 29 -2 79 -59
l60 -68 -50 5 c-39 4 -54 1 -70 -14 -26 -23 -61 -92 -84 -161 -15 -45 -23 -55
-63 -75 -42 -21 -48 -27 -53 -65 -8 -61 -22 -73 -86 -73 -69 0 -112 18 -150
65 -48 58 -59 110 -44 218 22 166 77 328 200 593 68 146 73 178 37 240 l-24
42 147 125 c80 69 198 173 261 231 100 93 130 116 130 102z m87 -1553 c185
-209 403 -441 651 -695 l204 -207 -39 -36 c-83 -77 -186 -99 -257 -56 -82 51
-249 260 -379 476 -139 229 -352 675 -323 675 1 0 66 -71 143 -157z m-232
-240 c110 -161 347 -478 492 -659 155 -194 151 -186 119 -235 -15 -21 -45 -53
-69 -70 -84 -62 -160 -24 -288 145 -120 158 -225 391 -288 642 -24 96 -61 272
-61 290 0 18 27 -14 95 -113z m-769 -199 c20 -48 17 -109 -10 -215 -50 -196
-76 -491 -86 -999 -8 -446 -12 -476 -80 -610 -50 -98 -51 -97 -76 90 -22 167
-22 512 0 720 29 268 89 582 167 880 52 199 56 205 85 134z m609 -121 c203
-450 289 -664 280 -702 -16 -75 -89 -94 -142 -38 -96 100 -170 303 -198 547
-17 138 -20 320 -6 320 5 0 35 -57 66 -127z m-436 -28 c22 -46 16 -182 -14
-330 -25 -120 -27 -142 -21 -288 8 -180 20 -295 42 -385 18 -72 12 -98 -36
-150 -33 -37 -83 -44 -99 -14 -16 30 -24 434 -12 627 12 192 30 323 62 447 33
133 49 152 78 93z m238 -116 l47 -71 2 -104 c2 -90 8 -118 39 -211 32 -91 36
-116 32 -163 -8 -75 -25 -118 -49 -126 -28 -8 -90 54 -118 117 -50 117 -65
451 -26 577 9 28 19 52 21 52 3 0 26 -32 52 -71z"/>
</g>
</svg>