<svg height="511pt" viewBox="-31 0 511 511.83628" width="511pt" xmlns="http://www.w3.org/2000/svg"><path d="m440.417969 209.585938c-6.796875.386718-13.441407-2.101563-18.3125-6.859376-4.871094-4.753906-7.515625-11.339843-7.289063-18.144531 0-32.597656-21.246094-50.515625-59.734375-50.515625-18.96875-.269531-37.136719 7.660156-49.832031 21.757813-10.4375 13.347656-14.035156 30.804687-9.730469 47.191406 2.886719 12.875 8.761719 24.890625 17.152344 35.070313 9.386719 12.886718 12.886719 17.664062-10.496094 37.460937-9.726562-4.09375-35.414062-18.859375-45.738281-62.890625 2.941406 4.59375 6.46875 8.78125 10.496094 12.460938 4.425781 3.917968 10.964844 4.269531 15.789062.851562 4.90625-3.316406 6.828125-9.613281 4.605469-15.105469-3.617187-10.523437-3.886719-21.910156-.765625-32.59375 2.40625-7.917969 5.460938-15.625 9.128906-23.042969 13.484375-29.183593 31.828125-69.117187-10.921875-118.78125-36.78125-42.753906-90.367187-38.828124-119.039062-32.683593-5.816407 1.265625-9.992188 6.371093-10.070313 12.324219-.082031 5.949218 3.949219 11.167968 9.726563 12.59375 6.988281 1.703124 13.8125 4.015624 20.394531 6.910156-19.058594-3.289063-38.667969-.824219-56.320312 7.082031-14.375 6.714844-28.160157 14.621094-41.214844 23.636719-5.183594 3.898437-6.585938 11.082031-3.242188 16.640625 13.398438 23.125 29.269532 32.34375 43.433594 25.429687 16.46875-8.191406 19.96875-5.972656 24.40625-1.535156.828125.726562 1.039062 1.933594.511719 2.902344-.511719 1.109375-1.707031 1.621094-3.5 1.363281-.253907 0-26.539063-2.304687-36.691407 9.472656-3.503906 4.15625-4.75 9.769531-3.328124 15.019531l.339843 1.449219c3.839844 15.617188 8.109375 26.625 16.640625 29.613281 4.324219 1.503907 9.117188.628907 12.628906-2.304687 6.863282-4.265625 14.089844-7.921875 21.589844-10.921875-4.910156 6.269531-10.242187 12.199219-15.957031 17.746094h-.085937c-1.960938 1.707031-3.839844 3.328125-5.632813 4.609375l-2.300781 1.621093c-4.078125 2.640626-7.566406 6.101563-10.242188 10.15625-4.875 7.652344-7.507812 16.523438-7.59375 25.597657-.183594 2.984375-.15625 5.980469.085938 8.960937.167968 2.644532.425781 5.289063.851562 8.105469.425782 2.816406 1.109375 5.71875 1.878906 8.875h-94.890624c-6.046876.003906-11.640626 3.21875-14.679688 8.449219l-9.8125 16.726562c-2.398438 4.265625-2.894531 9.34375-1.363281 13.992188 1.554687 4.589844 5.003906 8.285156 9.46875 10.15625l39.253906 16.46875c5.226563 2.195312 11.203125 1.628906 15.921875-1.511719s7.554688-8.4375 7.546875-14.105469l-.171875-2.300781c28.480469 5.429687 56.539062 12.871094 83.96875 22.269531h.085938c7.847656 2.730469 15.613281 5.71875 22.953124 8.960938.085938 0 .171876.085937.257813.085937.121094.113281.265625.203125.425781.253907.511719.257812 1.023438.429687 1.449219.683593h.085937c25.34375 11.433594 40.875 23.894531 44.972657 35.839844 2.386719 7.082031 4.863281 13.824219 7.421875 20.140625 1.878906 4.691406 3.753906 9.214844 5.71875 13.394531.683594 1.453125 1.277344 2.816407 1.960937 4.183594 13.824219 28.671875 29.441407 44.714844 50.089844 51.539063 15.53125 5.035156 18.773437 8.191406 19.542969 16.898437h-20.136719c-6.46875-.054687-12.402344 3.589844-15.277344 9.386719l-8.53125 16.722656c-2.648437 5.207031-2.386719 11.417969.679688 16.386719 3.109375 5.070312 8.644531 8.148437 14.59375 8.105469h64.425781c8.214844-.035157 15.242188-5.914063 16.726562-13.996094l14.507813-78.335938c1.441406-7.820312-2.792969-15.585937-10.15625-18.601562-15.277344-5.648438-26.921875-18.277344-31.316406-33.960938-8.023438-31.402344-8.109375-37.378906 7.335937-60.160156 1.878906-2.816406 3.925782-5.632812 5.976563-8.535156 15.527343-21.675782 36.863281-51.371094 1.449219-86.1875-11.945313-11.773438-16.640626-23.636719-12.203126-30.890625 4.914063-6.199219 13.359376-8.363281 20.652344-5.289063 5.628906 1.792969 6.738282 5.972656 7.765625 19.113282 1.109375 13.484374 2.644531 33.792968 26.964844 39.765624 40.277344 9.898438 51.796875-11.859374 52.308594-12.800781 1.324219-2.640625 1.191406-5.777343-.355469-8.296875-1.546875-2.519531-4.285156-4.0625-7.238281-4.074218zm-260.695313-133.890626-17.066406 8.535157c-1.179688.628906-2.5.953125-3.839844.9375-3.222656.03125-6.175781-1.796875-7.59375-4.691407-1.03125-2.011718-1.210937-4.351562-.507812-6.5.707031-2.148437 2.238281-3.925781 4.261718-4.933593l17.066407-8.535157c2.714843-1.382812 5.960937-1.207031 8.511719.457032 2.550781 1.664062 4.019531 4.566406 3.847656 7.605468-.171875 3.042969-1.957032 5.761719-4.679688 7.125zm0 0"/><path d="m226.402344 383.75c-2.5625-6.3125-5.035156-13.054688-7.425782-20.136719-4.097656-11.949219-19.625-24.40625-44.96875-35.839843h-.085937c-9.644531 1.449218-42.753906 9.128906-46.679687 44.03125-4.605469 41.898437 13.226562 56.320312 19.03125 61.097656 1.023437.769531 1.792968 1.28125 2.644531 1.878906 8.78125 4.953125 15.117187 13.324219 17.492187 23.125 1.058594 10.621094-2.304687 21.207031-9.300781 29.269531-2.121094 2.964844-5.921875 4.207031-9.386719 3.070313l-30.804687-9.726563-12.375 23.039063 74.328125-.257813 28.839844-63.570312c-16.125-10.753907-21.332032-26.113281-13.820313-40.789063 6.140625-12.203125 20.050781-15.191406 32.511719-15.191406zm0 0"/><path d="m29.195312 140.636719c7.109376.011719 13.46875 4.429687 15.957032 11.09375l21.417968 57.171875h39.851563c.085937-9.074219 2.71875-17.945313 7.59375-25.601563h-15.015625c-5.273438.023438-10.253906-2.40625-13.484375-6.570312l-54.613281-70.226563h-26.625l11.351562 34.132813zm0 0"/></svg>