<?xml version="1.0" encoding="UTF-8" standalone="no"?>
<!-- Created with Inkscape (http://www.inkscape.org/) -->
<svg
   xmlns:dc="http://purl.org/dc/elements/1.1/"
   xmlns:cc="http://creativecommons.org/ns#"
   xmlns:rdf="http://www.w3.org/1999/02/22-rdf-syntax-ns#"
   xmlns:svg="http://www.w3.org/2000/svg"
   xmlns="http://www.w3.org/2000/svg"
   version="1.1"
   width="238"
   height="300"
   id="svg2">
  <metadata
     id="metadata37">
    <rdf:RDF>
      <cc:Work
         rdf:about="">
        <dc:format>image/svg+xml</dc:format>
        <dc:type
           rdf:resource="http://purl.org/dc/dcmitype/StillImage" />
        <dc:title></dc:title>
      </cc:Work>
    </rdf:RDF>
  </metadata>
  <defs
     id="defs4">
    <style
       type="text/css"
       id="style2757" />
    <filter
       style="color-interpolation-filters:sRGB"
       id="filter4226">
      <feGaussianBlur
         id="feGaussianBlur4228"
         stdDeviation="5.34" />
    </filter>
  </defs>
  <g
     transform="matrix(0.9237377099999999,0,0,0.94295393,-409.61015,-3.975310999999976)"
     id="g17527"
     style="stroke:#aa8800">
    <g
       transform="translate(-123.41166,-260.88231)"
       id="g37035">
      <g
         transform="translate(-60.773519,-125.20693)"
         id="g6354">
        <g
           id="g17924">
          <g
             transform="matrix(1.2221,0,0,1.2221,-165.70439,197.10938)"
             id="layer1">
            <g
               transform="matrix(0.7444093,0,0,0.8304389999999999,193.26207,73.149234)"
               id="g11519"
               style="stroke:#000000;stroke-width:3.0100002289">
              <g
                 transform="translate(-20.469655,-278.11235)"
                 id="g11521">
                <g
                   transform="matrix(1,0,0,0.9,-94.24011699999998,-7.106950300000002)"
                   id="g12111"
                   style="stroke-width:3.1728188992" />
              </g>
            </g>
          </g>
        </g>
      </g>
    </g>
  </g>
  <g
     transform="translate(-114.6835598591483,72.63585577998765)"
     id="g1154">
    <path
       d="m 245.3776190720881,137.1919001402835 c -1.0416632677125,0.5208237310928 -3.6458135342303,26.0415026651778 14.0624082780905,48.958015527218 0,0 -23.4373460764491,21.8748653998548 -24.4790093441616,29.1664924683154 -1.0416632677126,7.2916112629335 -2.6041502665178,7.2916112629335 -3.6458135342304,0 -1.0416632677125,-7.2916270684606 -24.4790156663725,-29.1664924683154 -24.4790156663725,-29.1664924683154 17.7082281345318,-22.9165128620402 15.1040778680139,-48.4371917961252 15.3644897335603,-48.1767799305789 l -6.3057889226897,-17.7684155819705 c -0.736584982402,0.7365691768749 8.8387827059172,10.3119052541399 5.8925059984177,-13.9947353329872 C 218.8411189072028,81.90334423483787 193.0613557718531,47.284798393571 193.0613557718531,47.284798393571 c -14.7312728988078,-16.94099623495961 -15.4678578812098,-62.60801650724136 5.8925059984177,-77.33930521157631 21.360411296209,-14.73130134875677 30.8463987284185,-36.00232132498701 35.0125776334538,-36.00232132498701 4.1661947105624,0 13.6521821427719,21.27101997623016 35.0125681501376,36.00232132498701 21.3603638796276,14.73128870433487 20.6237852194363,60.39830897661665 5.892504417865,77.33930521157631 0,0 -25.7797678770081,34.61854584126694 -28.7260287789805,58.92518642839389 -2.9462609019724,24.3066405871271 6.6290909808198,14.7313045098621 5.8925218039448,13.9947353329872 l -6.6603859246035,16.9871799853315 z"
       id="path8386"
       style="fill:#e9e9e9;fill-rule:evenodd;stroke:#000000;stroke-width:3" />
    <path
       d="m 271.4191169956077,136.1502368725711 c -1.0416601066071,6.249963800748 -13.0207497520361,-28.6456529316956 17.7082202317682,-33.8539534647312 30.728971564357,-5.20830053303554 27.6039912445357,32.2914664659259 27.6039912445357,32.2914664659259 0,0 28.6456513511429,-5.2083005330355 29.68731145775,-33.8539534647311 1.0416601066071,-28.64565293169555 -14.5832414924996,-52.08300533035548 -33.8539518841784,-52.08300533035548 -19.2707103916788,0 -31.7706300904115,10.41660106607114 -41.6664011031791,24.99983939746512 -9.8957694322148,14.58325413692131 -15.1040699652504,36.45810373124886 -16.6665538029501,43.74973079970956 -1.5625028043324,7.2916112629335 -4.6874768019429,4.6874609964157 -4.6874768019429,4.6874609964157 0,0 3.1249739976105,10.9374406026909 3.1249739976105,15.6249015991067 0,4.6874768019428 1.5427933119594,29.2319431562995 18.7498866605861,34.374793001351 11.4067193485979,3.4092205981194 18.7498803383753,-5.7291400696555 19.2707103916788,-24.4790156663726 0,0 -17.7082202317681,10.9374247971638 -19.2707103916788,-11.4582643337836 z"
       id="path8404"
       style="fill:#e9e9e9;fill-rule:evenodd;stroke:#000000;stroke-width:3" />
    <path
       d="m 195.9480140308918,136.1502368725711 c 1.0416632677126,6.249963800748 13.020751332589,-28.6456529316956 -17.7082123290045,-33.8539534647312 -30.7289794671207,-5.20830053303554 -27.6040054695102,32.2914664659259 -27.6040054695102,32.2914664659259 0,0 -28.6456529316956,-5.2083005330355 -29.6873161994081,-33.8539534647311 -1.0416632677125,-28.64565293169555 14.5832541369213,-52.08300533035548 33.8539692702583,-52.08300533035548 19.2706993278099,0 31.770626929306,10.41660106607114 41.6663884587573,24.99983939746512 9.8957773349784,14.58325413692131 15.1040778680139,36.45810373124886 16.6665648668192,43.74973079970956 1.5624869988053,7.2916112629335 4.6874768019428,4.6874609964157 4.6874768019428,4.6874609964157 0,0 -3.1249898031375,10.9374406026909 -3.1249898031375,15.6249015991067 0,4.6874768019428 -1.5428249230138,29.2319431562995 -18.7498755967173,34.374793001351 -11.4067225097032,3.4092205981194 -18.749875596717,-5.7291400696555 -19.2707151333368,-24.4790156663726 0,0 17.7082281345317,10.9374247971638 19.2707151333368,-11.4582643337836 z"
       id="path8406"
       style="fill:#e9e9e9;fill-rule:evenodd;stroke:#000000;stroke-width:3" />
    <path
       d="m 145.2360907653912,111.7342220374723 c 0,0 -8.1022135290424,-10.3119052541399 1.4731383537498,-22.8335022333773 9.575336077265,-12.52161278476457 22.465233450467,-10.68018984257732 26.884616900662,-9.94363647122958 4.4193834501951,0.73656917687491 34.2502612528296,15.09958909829953 34.2502612528296,44.93046690093418 l 0.7365691768749,0.3682845884375 c -0.3682845884375,-4.7876838441597 -14.7313045098621,-42.72077517583652 -42.7207593703093,-40.87935223364913 -27.9894706659744,1.84140713666008 -20.623826313807,28.35773944888453 -20.623826313807,28.35773944888453 z"
       id="path11074"
       style="fill:#000000;fill-rule:evenodd;stroke-width:3" />
    <path
       d="m 234.1410114512458,207.4399923678328 c -2.7892804061842,-105.2076581228965 -0.1879593290287,-68.2287306605549 -0.1879593290287,-68.2287306605549 0,0 0,0 0.025446898733,0 0.025446898733,0 2.3530320509436,-36.9789274623416 0.1624175971324,68.2287306605549 z"
       id="path10190"
       style="fill:#000000;fill-rule:evenodd;stroke-width:3" />
    <path
       d="m 322.125002549732,111.7342220374723 c 0,0 8.1022403984385,-10.3119052541399 -1.4731162260118,-22.8335022333773 -9.5753550438976,-12.52161278476457 -22.4652318699143,-10.68018984257732 -26.8846200617675,-9.94363647122958 -4.4193881918532,0.73656917687491 -34.2502818000148,15.09958909829953 -34.2502818000148,44.93046690093408 l -0.7365359852679,0.3682845884376 c 0.3683304244662,-4.7876680386327 14.7312808015713,-42.72075937030935 42.720727759255,-40.87935223364927 27.9894880520543,1.84140713666008 20.6238263138067,28.35775525441167 20.6238263138067,28.35775525441167 z"
       id="path11949"
       style="fill:#000000;fill-rule:evenodd;stroke-width:3" />
    <path
       d="m 231.2385476650435,139.2752108701815 -33.0777440257301,0 c -7.7624421116079,0 -14.0624146003014,-4.4332923140989 -14.0624146003014,-9.8957615294512 0,-5.4624692153524 6.2999724886935,-9.8957773349785 14.0624146003014,-9.8957773349785 l 33.9021287115256,0 33.9021366142891,0 c 7.7624500143715,0 14.0624098586434,4.4333081196261 14.0624098586434,9.8957773349785 0,5.4624692153523 -6.2999598442719,9.8957615294512 -14.0624098586434,9.8957615294512 l -34.7265213000846,0 z"
       id="path8417"
       style="fill:#e9e9e9;fill-rule:evenodd;stroke:#000000;stroke-width:3;stroke-linecap:round" />
    <path
       d="M 234.3054521558552,120.5253352734644 C 228.9090184329921,15.31767715056785 233.941830197931,-55.51520693761026 233.941830197931,-55.51520693761026 c 0,0 0,0 0.04931324475,0 0.04931324475,0 4.5524185723305,70.83288408817813 0.3142612965925,176.04054221107466 z"
       id="path10182"
       style="fill:#000000;fill-rule:evenodd;stroke-width:3" />
    <path
       d="m 193.5550256072789,153.8584650071028 c 0,0 9.1145259328122,1.8228988643516 14.3228264658478,-14.8436660024677"
       id="path11960"
       style="fill:none;stroke:#000000;stroke-linecap:round;stroke-linejoin:round" />
    <path
       d="m 272.4607771022148,153.8584650071028 c 0,0 -9.1145243522595,1.8228988643516 -14.322824885295,-14.8436660024677"
       id="path11962"
       style="fill:none;stroke:#000000;stroke-linecap:round;stroke-linejoin:round" />
  </g>
</svg>